<svg width="57" height="56" fill="none" xmlns="http://www.w3.org/2000/svg"><g clip-path="url(#clip0)"><path opacity=".3" d="M49 24.5C49 38.035 38.035 49 24.5 49S0 38.035 0 24.5 10.965 0 24.5 0 49 10.965 49 24.5z" fill="#166D44"/><path d="M22.452 35.894c0 5.256-4.12 18.386-8.442 15.913-3.26-1.813-6.226-11.078-6.226-15.913 0-4.852 2.6-6.5 7.325-6.5 4.047 0 7.343 1.117 7.343 6.5z" fill="#fff"/><path opacity=".3" d="M13.15 23.46v5.53l-.88.11c1.21 12.837 4.487 12.819 5.695 0l-.878-.11v-5.53h-3.938z" fill="#166D44"/><path d="M18.04 12.528v10.273a2.939 2.939 0 01-2.93 2.93 2.938 2.938 0 01-2.93-2.93V12.53a2.938 2.938 0 012.93-2.93 2.939 2.939 0 012.93 2.93z" fill="#fff"/><path d="M15.11 52.87c4.34 0 8.075-11.39 8.075-16.976 0-5.163-2.93-6.683-5.86-7.086v-3.095a3.625 3.625 0 001.465-2.912V12.53a3.661 3.661 0 00-3.662-3.663 3.673 3.673 0 00-3.663 3.662v10.273c0 1.154.55 2.235 1.465 2.912v3.095c-2.948.403-5.86 1.922-5.86 7.086-.018 5.586 3.718 16.976 8.04 16.976zm1.336-22.689c-.385 3.57-.952 5.31-1.318 5.75-.367-.44-.934-2.18-1.319-5.75.86-.073 1.74-.073 2.637 0zM12.912 12.53c0-1.21.989-2.198 2.197-2.198 1.209 0 2.198.989 2.198 2.197v10.273A2.204 2.204 0 0115.109 25a2.204 2.204 0 01-2.197-2.198V12.53zm1.465 13.862c.476.091.989.091 1.465 0v2.289a19.554 19.554 0 00-1.465 0v-2.29zm-2.033 4.01c.77 7.05 2.161 7.05 2.784 7.05.622 0 2.014 0 2.783-7.05 2.673.622 3.827 2.326 3.827 5.493 0 5.622-3.809 15.51-6.592 15.51-2.784 0-6.592-9.888-6.592-15.51-.037-3.167 1.098-4.87 3.79-5.493z" fill="#051B10"/><path d="M15.11 13.26a.732.732 0 100-1.464.732.732 0 000 1.465zm12.615 2.635c2.85 1.917 6.848 1.819 10.174.868a16.891 16.891 0 011.081 4.39l.033 2.13h-12.68c-.524 0-1.016.23-1.36.623a1.826 1.826 0 00-.442 1.425l5.21 28.096A1.807 1.807 0 0031.542 55h16.791c.918 0 1.688-.672 1.802-1.59 0 0 5.21-28.013 5.21-28.095a1.807 1.807 0 00-.442-1.425 1.805 1.805 0 00-1.36-.623H40.848l.049-2.13a16.896 16.896 0 011.081-4.39c3.31.95 7.307 1.049 10.174-.868 4.34-2.9 4.98-9.6 5.013-9.879 0-.049 0-.114-.017-.164a.716.716 0 00-.13-.41c-.017-.016-.034-.016-.034-.032a.701.701 0 00-.294-.246c-.033-.016-.082-.049-.115-.065-.262-.099-6.455-2.261-10.829.671-3.932 2.622-4.833 8.34-4.98 9.633a5.044 5.044 0 00-.82 1.688 5.125 5.125 0 00-.819-1.704c-.163-1.31-1.064-6.995-4.98-9.633-4.357-2.932-10.55-.754-10.812-.672-.033.017-.082.033-.115.066a.723.723 0 00-.295.246l-.032.032a.769.769 0 00-.131.426c-.017.05-.017.115-.017.164 0 .279.639 6.98 4.98 9.895zm-2.834-8.044l11.173 7.487c-6.16 1.18-9.682-1.278-11.173-7.487zm23.444 45.347H31.541L28.97 33.26h21.937l-2.572 19.938zm-4.522-37.86l11.173-7.487c-1.491 6.242-5.03 8.65-11.173 7.487zm10.255-9.043l-11.172 7.487c1.49-6.176 4.963-8.666 11.172-7.487zm-20.936.934c2.293 1.54 3.374 4.538 3.85 6.536L25.808 6.28c1.95-.36 5.013-.59 7.323.95z" fill="#051B10"/><path d="M37.636 15.289a14.377 14.377 0 01-5.717.672 7.774 7.774 0 01-3.44-1.18c-2.572-1.736-3.948-5.586-4.227-8.453a15.486 15.486 0 013.227-.672 9.16 9.16 0 015.93 1.18c2.72 1.818 3.72 5.537 4.064 7.372.13.671.163 1.081.163 1.081z" fill="#166D44"/><path d="M53.183 24.66c.426 0 .737.377.672.802l-4.931 27.523a.87.87 0 01-.868.77H31.804a.87.87 0 01-.868-.77l-4.931-27.523a.682.682 0 01.672-.802h26.506z" fill="#fff"/><path d="M55.87 6.18c-.295 3.015-1.72 6.963-4.374 8.749-2.375 1.589-5.603 1.507-8.371.851-.377-.081-.737-.196-1.114-.31 0 0 .032-.427.164-1.115.36-1.9 1.392-5.734 4.21-7.618A7.893 7.893 0 0149.94 5.51a14.248 14.248 0 014.849.393 8.089 8.089 0 011.081.278z" fill="#166D44"/><path opacity=".3" d="M50.46 27c.327 0 .58.316.535.661L47.103 50.37a.705.705 0 01-.684.631H33.584a.706.706 0 01-.683-.631l-3.892-22.71a.555.555 0 01.535-.661H50.46z" fill="#166D44"/></g><defs><clipPath id="clip0"><path fill="#fff" d="M0 0h57v56H0z"/></clipPath></defs></svg>