<svg width="59" height="50" fill="none" xmlns="http://www.w3.org/2000/svg"><g clip-path="url(#clip0)"><path opacity=".3" d="M49.625 25.377C49.625 38.98 38.52 50 24.812 50 11.105 50 0 38.98 0 25.377 0 11.774 11.105.754 24.812.754c13.708 0 24.813 11.02 24.813 24.623z" fill="#166D44"/><path d="M25.298 45.027c0-2.374-1.778-4.299-3.96-4.299-2.183 0-3.427 1.99-3.96 4.3-1.003 4.298 5.333 4.298 7.516 4.298h26.93V19.201h-26.51v25.826h-.016z" fill="#fff"/><path opacity=".3" d="M44.505 40.303v3.341h1.201c.328 0 .64.13.874.371l.952.985h.483V33.04l-3.495 3.615v3.648h-.015zM44 23v12l3.423-2.809c-1.872-2.258-1.96-4.297.572-6.638.018-.016-.018.841 0 .808V23H44zm-4.302 1.937l3.496 2.582V23h-1.622c-.156.694-1.437 1.356-1.874 1.937z" fill="#166D44"/><path opacity=".3" d="M37.222 26.954c-.13 0-.26 0-.39-.016-1.565-.096-3.08-.823-4.285-2.001-.554-.549-.994-1.21-1.37-1.937H25v22h15.627a31.92 31.92 0 001.157-.936l.05-.049a.64.64 0 01.162-.129c.7-.613 1.369.741 2.004.047V29.44L40 25c-.912.678-1.588 1.954-2.778 1.954z" fill="#166D44"/><path d="M21.386 40.712c2.392 0 4.332 1.925 4.332 4.3V19.184c0-2.374-1.94-4.299-4.332-4.299-2.393 0-4.332 1.925-4.332 4.3V45.01c0-2.374 1.94-4.299 4.332-4.299z" fill="#fff"/><path opacity=".3" d="M44.484 45.813h-1.148c-.323 0-.614.113-.84.289l-1.81 1.508c-.114.096-.033.273.129.273h6.19c.179 0 .26-.177.13-.273l-1.81-1.508a1.363 1.363 0 00-.84-.289z" fill="#166D44"/><path d="M39.15 17.757c2.23 2.214 2.425 5.438.533 7.315-1.89 1.877-5.14 1.7-7.37-.53-2.894-2.87-2.894-9.672-2.894-9.672s6.821.016 9.73 2.887zM43.999.914s4.817 4.829 4.817 8.887c-.016 3.144-2.182 5.534-4.866 5.534-2.683-.016-4.833-2.438-4.833-5.582C39.133 5.695 44 .914 44 .914z" fill="#166D44"/><path d="M43.967 15.96h-.016c-1.487 0-2.877-.657-3.896-1.828-1.018-1.155-1.568-2.71-1.568-4.379.017-4.283 4.866-9.095 5.06-9.304L43.999 0l.453.45c.21.208 5.01 5.052 4.995 9.335-.016 3.481-2.425 6.176-5.48 6.176zm.032-14.115c-1.18 1.283-4.218 4.876-4.218 7.924 0 1.348.436 2.615 1.244 3.529.776.882 1.827 1.38 2.926 1.38h.016c2.344 0 4.187-2.15 4.203-4.893 0-3.032-3.007-6.657-4.17-7.94z" fill="#051B10"/><path d="M48.574 24.944c-2.231 2.213-2.425 5.438-.534 7.315 1.891 1.876 5.14 1.7 7.371-.53 2.893-2.871 2.893-9.672 2.893-9.672s-6.837 0-9.73 2.887z" fill="#166D44"/><path d="M58.322 21.399c-.065 0-1.86.16-2.878.256-.565.049-1.131.129-1.68.241-.34.064-.696.16-1.052.24V19.09a.577.577 0 00-.581-.578H40.62a7.16 7.16 0 00-1.002-1.235c-3.055-3.031-9.924-3.064-10.215-3.064h-.68v.674c0 .128 0 1.7.324 3.625h-2.7c-.339-2.486-2.537-4.395-5.14-4.299-2.715.097-4.833 2.375-4.833 5.07v25.73c0 2.742 2.247 4.972 5.011 4.972H52.13a.577.577 0 00.581-.578V34.008a6.84 6.84 0 003.185-1.829c3.055-3.031 3.087-9.849 3.087-10.138v-.673h-.662v.032zm-17.038-1.54h9.489c.323 0 .582.256.582.577v2.102c-1.229.449-2.393 1.058-3.265 1.909-2.296 2.277-2.668 5.566-.97 7.764l-2.587 2.566V15.784a.71.71 0 00-.614-.705.678.678 0 00-.743.673v11.855l-2.587-2.567c1.132-1.444 1.342-3.368.695-5.181zm-8.211-3.946c2.57.449 4.51 1.25 5.593 2.326 1.745 1.732 2.117 4.186.953 5.839l-.953.946c-.711.481-1.584.706-2.506.642-1.228-.08-2.424-.642-3.378-1.604-2.15-2.134-2.586-6.738-2.667-8.502.663.064 1.745.144 2.958.353zM17.733 19.2c0-2.005 1.649-3.625 3.653-3.625s3.653 1.636 3.653 3.625v22.426a4.984 4.984 0 00-3.653-1.573c-1.439 0-2.748.61-3.653 1.573V19.2zm3.75 29.452c-1.988 0-3.67-1.524-3.75-3.497-.081-2.07 1.6-3.77 3.653-3.77 2.02 0 3.653 1.636 3.653 3.625h1.358V19.86h2.91c.436 1.877 1.196 3.866 2.505 5.165 1.196 1.187 2.7 1.893 4.251 1.99.13.015.259.015.388.015 1.18 0 2.28-.369 3.184-1.043l3.54 3.514v14.116h-1.244c-.34 0-.663.128-.905.369l-4.688 4.651H21.483v.017zm16.779 0l3.313-3.289a1.33 1.33 0 01.938-.385h2.667c.355 0 .695.145.938.385l3.313 3.289h-11.17zm13.093-.017L46.683 44a1.276 1.276 0 00-.905-.37h-1.245v-6.945l3.637-3.61c.437.578 2.474 1.14 3.072 1.14h.097v14.42h.016zm5.932-22.906c-.453 2.55-1.325 4.395-2.344 5.534-1.988 2.214-4.639 1.588-5.819.882l-1.035-.882c-1.147-1.668-.791-4.107.954-5.839 2.15-2.133 6.79-2.567 8.567-2.647a24.556 24.556 0 01-.323 2.952z" fill="#051B10"/></g><defs><clipPath id="clip0"><path fill="#fff" d="M0 0h59v50H0z"/></clipPath></defs></svg>