<svg width="55" height="64" fill="none" xmlns="http://www.w3.org/2000/svg"><g clip-path="url(#clip0)"><path opacity=".3" d="M47 30.5C47 43.482 36.482 54 23.5 54S0 43.467 0 30.5 10.518 7 23.5 7 47 17.518 47 30.5z" fill="#166D44"/><path d="M51.692 8.96c.377.345.525.886.377 1.378l-2.592 8.583a1.35 1.35 0 01-1.69.903.693.693 0 01-.23-.099l-8.107-4.168a1.371 1.371 0 01-.739-1.296l.296-4.284a1.358 1.358 0 011.444-1.263c.05 0 .115.016.164.016l2.97.591a1.34 1.34 0 001.395-.59l1.56-2.397a1.352 1.352 0 011.87-.393c.066.049.131.098.18.147l3.102 2.872zm1.148 16.246c.378.345.525.886.378 1.379l-2.593 8.582a1.349 1.349 0 01-1.69.903.695.695 0 01-.23-.099l-8.107-4.168a1.372 1.372 0 01-.738-1.296l.295-4.283A1.357 1.357 0 0141.6 24.96c.05 0 .115.016.165.016l2.97.591c.541.115 1.1-.131 1.395-.59l1.559-2.396a1.352 1.352 0 011.87-.394c.066.049.132.098.18.147l3.102 2.872zm-24.73-5.12a1.386 1.386 0 01-.574 1.379l-7.582 5.07c-.623.41-1.46.247-1.87-.377-.05-.066-.082-.148-.115-.213l-3.545-8.222a1.377 1.377 0 01.213-1.411l2.74-3.217a1.338 1.338 0 011.905-.147c.065.049.114.115.164.164l1.821 2.199c.345.426.936.59 1.46.426l2.872-.918a1.358 1.358 0 011.707.886c.017.049.033.114.05.164l.754 4.217z" fill="#166D44"/><path d="M53.4 24.615l-3.086-2.888a2.18 2.18 0 00-3.085.115c-.082.099-.164.197-.23.295l-1.066 1.658a6.652 6.652 0 00-6.203-4.267h-5.4V5.58h5.416c2.265 0 3.102.542 3.692 2.725l.05.164-2.675-.525a2.173 2.173 0 00-2.56 1.706c-.017.082-.033.18-.033.28l-.295 4.282c-.066.87.393 1.69 1.165 2.084l8.106 4.185c1.067.558 2.38.131 2.938-.935a1.67 1.67 0 00.147-.361l2.56-8.6a2.149 2.149 0 00-.59-2.215l-3.085-2.888a2.18 2.18 0 00-3.086.115 3.584 3.584 0 00-.23.295l-1 1.526c-.936-2.674-2.298-3.479-5.137-3.479h-5.415V.821a.813.813 0 00-.82-.821.813.813 0 00-.821.82v7.697l-5.678.64a6.66 6.66 0 00-5.678 4.94l-1.247-1.51a2.168 2.168 0 00-1.658-.788h-.016c-.64 0-1.247.279-1.658.771l-2.724 3.2a2.182 2.182 0 00-.344 2.281l3.544 8.222a2.174 2.174 0 002.856 1.132c.115-.05.246-.115.344-.197l7.582-5.07a2.185 2.185 0 00.935-2.2l-.787-4.233a2.17 2.17 0 00-2.544-1.74c-.082.017-.18.033-.263.066l-2.494.804a5 5 0 014.349-4.037l5.497-.624v23.631a2.46 2.46 0 002.462 2.462h1.313c.46 0 .82.36.82.82 0 .46-.36.82-.82.82h-4.595a2.458 2.458 0 00-2.462 2.462v5.12c.542.082 1.1.115 1.641.132v-5.252c0-.46.361-.82.82-.82h4.596c1.362 0 2.461-1.1 2.461-2.462s-1.1-2.461-2.461-2.461h-1.313a.813.813 0 01-.82-.82V21.168h5.415a4.983 4.983 0 014.775 3.528l-2.576-.508a2.173 2.173 0 00-2.56 1.706c-.017.082-.033.18-.033.28l-.296 4.282c-.065.87.394 1.69 1.166 2.084l8.106 4.185c1.067.558 2.38.131 2.938-.935a1.67 1.67 0 00.147-.361l2.593-8.583a2.167 2.167 0 00-.59-2.232zM45.67 9.19l1.56-2.396a.55.55 0 01.803-.115l3.085 2.872a.554.554 0 01.148.541l-2.593 8.583a.542.542 0 01-.673.36c-.032-.015-8.205-4.216-8.205-4.216a.549.549 0 01-.295-.51l.295-4.282a.523.523 0 01.525-.493.32.32 0 01.115.017l2.97.59c.887.165 1.79-.213 2.265-.951zm-22.712 7.335l2.872-.919a.527.527 0 01.673.345c0 .016.016.049.016.065l.788 4.234a.535.535 0 01-.23.542l-7.581 5.07a.53.53 0 01-.739-.147c-.016-.033-.033-.05-.049-.082l-3.56-8.238a.532.532 0 01.081-.558l2.757-3.216a.484.484 0 01.41-.181c.164 0 .312.066.41.197l1.822 2.199c.558.69 1.477.952 2.33.69zm29.473 9.83l-2.593 8.582a.542.542 0 01-.672.361c-.033-.016-.066-.016-.082-.032l-8.107-4.169a.549.549 0 01-.296-.508l.296-4.283a.523.523 0 01.525-.493.32.32 0 01.115.017l2.97.59a2.157 2.157 0 002.248-.951l1.56-2.396a.55.55 0 01.738-.164.228.228 0 01.065.049l3.085 2.872a.517.517 0 01.148.525z" fill="#051B10"/><path d="M40.303 64H20.595a1.111 1.111 0 01-1.1-.935l-3.118-19.233c-.05-.328.033-.657.246-.903.214-.246.525-.394.854-.394h25.928c.328 0 .64.148.853.394.213.246.312.575.246.903l-3.101 19.233a1.111 1.111 0 01-1.1.935zm-18.757-2.232h17.806l2.74-17H18.789l2.757 17z" fill="#051B10"/><path d="M43.405 43.651H17.477l3.101 19.233h19.709l3.118-19.233z" fill="#fff"/><path opacity=".3" d="M41 46H20l2.512 15h15.96L41 46z" fill="#166D44"/></g><defs><clipPath id="clip0"><path fill="#fff" d="M0 0h54.088v64H0z"/></clipPath></defs></svg>