<svg width="64" height="64" fill="none" xmlns="http://www.w3.org/2000/svg"><g clip-path="url(#clip0)"><path opacity=".3" d="M53 30.5C53 44.035 42.035 55 28.5 55S4 44.035 4 30.5 14.965 6 28.5 6 53 16.965 53 30.5z" fill="#166D44"/><path d="M26.453 41.894c0 5.256-4.12 18.386-8.442 15.913-3.26-1.813-6.226-11.078-6.226-15.913 0-4.852 2.6-6.5 7.324-6.5 4.047 0 7.343 1.117 7.343 6.5z" fill="#fff"/><path opacity=".3" d="M17.15 29.46v5.53l-.879.11c1.209 12.837 4.486 12.819 5.695 0l-.879-.11v-5.53H17.15z" fill="#166D44"/><path d="M22.04 18.529V28.8a2.938 2.938 0 01-2.93 2.93 2.939 2.939 0 01-2.93-2.93V18.53a2.939 2.939 0 012.93-2.93 2.938 2.938 0 012.93 2.93z" fill="#fff"/><path d="M19.11 58.87c4.34 0 8.075-11.39 8.075-16.976 0-5.163-2.93-6.683-5.86-7.086v-3.095a3.625 3.625 0 001.465-2.912V18.53a3.661 3.661 0 00-3.662-3.663 3.673 3.673 0 00-3.663 3.663V28.8c0 1.154.55 2.235 1.465 2.912v3.095c-2.948.403-5.86 1.922-5.86 7.086-.018 5.586 3.718 16.976 8.04 16.976zm1.336-22.689c-.384 3.57-.952 5.31-1.318 5.75-.366-.44-.934-2.18-1.319-5.75.861-.073 1.74-.073 2.637 0zM16.912 18.53c0-1.21.989-2.198 2.197-2.198 1.209 0 2.198.989 2.198 2.198V28.8a2.204 2.204 0 01-2.198 2.2 2.204 2.204 0 01-2.197-2.198V18.53zm1.465 13.862c.476.091.989.091 1.465 0v2.288a19.55 19.55 0 00-1.465 0v-2.288zm-2.033 4.01c.77 7.05 2.161 7.05 2.784 7.05.622 0 2.014 0 2.783-7.05 2.674.622 3.827 2.325 3.827 5.493 0 5.622-3.808 15.51-6.592 15.51-2.783 0-6.592-9.888-6.592-15.51-.037-3.167 1.098-4.87 3.79-5.493z" fill="#051B10"/><path d="M19.11 19.26a.732.732 0 100-1.464.732.732 0 000 1.465zm12.615 2.635c2.85 1.917 6.848 1.819 10.174.868a16.891 16.891 0 011.081 4.39l.033 2.13h-12.68c-.524 0-1.016.23-1.36.623a1.826 1.826 0 00-.442 1.425l5.21 28.096a1.807 1.807 0 001.8 1.573h16.792c.918 0 1.688-.672 1.802-1.59 0 0 5.21-28.013 5.21-28.095a1.807 1.807 0 00-.442-1.425 1.805 1.805 0 00-1.36-.623H44.848l.049-2.13a16.896 16.896 0 011.081-4.39c3.31.95 7.307 1.049 10.174-.868 4.34-2.9 4.98-9.6 5.013-9.879 0-.049 0-.114-.017-.164a.716.716 0 00-.13-.41c-.017-.016-.034-.016-.034-.032a.7.7 0 00-.294-.246c-.033-.016-.082-.049-.115-.065-.262-.098-6.455-2.261-10.829.671-3.932 2.622-4.833 8.34-4.98 9.633a5.044 5.044 0 00-.82 1.688 5.125 5.125 0 00-.819-1.704c-.163-1.31-1.064-6.995-4.98-9.633-4.357-2.932-10.55-.753-10.812-.672-.033.017-.082.033-.115.066a.723.723 0 00-.295.246l-.032.032a.769.769 0 00-.131.426c-.017.05-.017.115-.017.164 0 .279.639 6.98 4.98 9.895zm-2.834-8.044l11.173 7.487c-6.16 1.18-9.682-1.278-11.173-7.487zm23.444 45.347H35.541L32.97 39.26h21.937l-2.572 19.938zm-4.522-37.86l11.173-7.487c-1.491 6.242-5.03 8.65-11.173 7.487zm10.255-9.043l-11.172 7.487c1.49-6.176 4.963-8.666 11.172-7.487zm-20.936.934c2.293 1.54 3.374 4.538 3.85 6.536L29.808 12.28c1.95-.36 5.013-.59 7.323.95z" fill="#051B10"/><path d="M41.637 21.289a14.377 14.377 0 01-5.718.672 7.774 7.774 0 01-3.44-1.18c-2.572-1.736-3.948-5.586-4.227-8.453a15.49 15.49 0 013.228-.672 9.162 9.162 0 015.93 1.18c2.72 1.818 3.719 5.537 4.063 7.372.13.671.164 1.081.164 1.081z" fill="#166D44"/><path d="M57.184 30.66c.425 0 .737.377.671.802l-4.93 27.523a.87.87 0 01-.87.77h-16.25a.87.87 0 01-.869-.77l-4.93-27.523a.682.682 0 01.67-.802h26.508z" fill="#fff"/><path d="M59.87 12.18c-.294 3.015-1.72 6.963-4.373 8.749-2.376 1.589-5.603 1.507-8.372.852-.377-.082-.737-.197-1.114-.312 0 0 .033-.426.164-1.114.36-1.9 1.393-5.734 4.21-7.618a7.894 7.894 0 013.555-1.228 14.248 14.248 0 014.85.393 8.073 8.073 0 011.08.278z" fill="#166D44"/><path opacity=".3" d="M54.46 33c.327 0 .58.316.535.661L51.103 56.37a.705.705 0 01-.684.631H37.584a.706.706 0 01-.683-.631l-3.892-22.71a.555.555 0 01.535-.661H54.46z" fill="#166D44"/></g><defs><clipPath id="clip0"><path fill="#fff" transform="translate(4 6)" d="M0 0h57v56H0z"/></clipPath></defs></svg>