<svg width="64" height="64" fill="none" xmlns="http://www.w3.org/2000/svg"><g clip-path="url(#clip0)"><path opacity=".3" d="M54.355 26.4c0 12.8-10.37 23.17-23.17 23.17C18.37 49.585 8 39.2 8 26.4 8 13.6 18.37 3.23 31.17 3.23c12.8 0 23.185 10.37 23.185 23.17z" fill="#166D44"/><path d="M34.672 41.902c-.272 0-.529-.106-.725-.302a1.043 1.043 0 01-.287-.92c.03-.152.725-3.774 3.427-6.491 2.702-2.702 6.34-3.397 6.49-3.427.332-.06.68.046.921.287.242.242.347.589.287.92-.03.152-.725 3.774-3.427 6.491-2.701 2.702-6.324 3.412-6.49 3.427-.076.015-.136.015-.196.015zm7.547-8.574c-1.087.423-2.506 1.147-3.668 2.325-1.178 1.177-1.902 2.581-2.325 3.668 1.087-.423 2.506-1.163 3.668-2.325 1.178-1.177 1.902-2.58 2.325-3.668z" fill="#051B10"/><path d="M40.618 37.72c-2.505 2.506-5.947 3.14-5.947 3.14s.634-3.426 3.155-5.947c2.506-2.505 5.947-3.14 5.947-3.14s-.649 3.442-3.155 5.948z" fill="#166D44"/><path d="M33.208 35.653c-.83 0-4.03-.121-6.883-1.932-3.23-2.038-4.71-5.434-4.77-5.57a1.012 1.012 0 01.076-.951c.181-.287.498-.468.83-.483.151 0 3.85-.12 7.08 1.917 3.23 2.038 4.709 5.434 4.77 5.57.135.317.105.664-.076.95a1.048 1.048 0 01-.83.484c-.016.015-.091.015-.197.015zm-5.78-3.668c1.403.89 2.927 1.283 4.09 1.464-.665-.966-1.676-2.189-3.08-3.064-1.388-.876-2.928-1.283-4.09-1.464.664.966 1.675 2.188 3.08 3.064z" fill="#051B10"/><path d="M26.868 32.86c3.004 1.902 6.49 1.766 6.49 1.766s-1.373-3.215-4.377-5.101c-3.004-1.902-6.49-1.766-6.49-1.766s1.388 3.2 4.377 5.101z" fill="#166D44"/><path d="M41.796 64H26.973a1.03 1.03 0 01-1.026-.906l-2.129-17.51a1.08 1.08 0 01.257-.814c.196-.227.483-.347.77-.347h19.079c.302 0 .574.12.77.347.196.226.287.513.256.815l-2.128 17.51a1.03 1.03 0 01-1.026.905zm-13.917-2.053h12.996l1.887-15.456h-16.77l1.887 15.456zM37.6 22.325c-2.34 0-4.151-.408-4.317-.453a1.029 1.029 0 01-.785-.89c-.03-.333-.876-8.137 3.502-12.031 4.377-3.894 12.03-2.159 12.347-2.083.422.106.74.453.785.89.045.333.875 8.136-3.502 12.03-2.28 2.038-5.464 2.537-8.03 2.537zM34.505 20c1.872.302 6.898.815 9.781-1.766 2.883-2.566 2.959-7.608 2.883-9.51-1.871-.301-6.898-.815-9.78 1.752-2.899 2.58-2.974 7.622-2.884 9.524z" fill="#051B10"/><path d="M36.694 9.72c-4.03 3.593-3.154 11.14-3.154 11.14s7.396 1.736 11.426-1.856c4.03-3.593 3.155-11.14 3.155-11.14s-7.396-1.72-11.427 1.857z" fill="#fff"/><path d="M29.902 22.325c-2.566 0-5.751-.499-8.046-2.536-4.377-3.895-3.532-11.698-3.502-12.03a1.03 1.03 0 01.786-.891c.331-.076 7.97-1.811 12.347 2.083s3.532 11.698 3.502 12.03a1.029 1.029 0 01-.785.89c-.151.03-1.963.454-4.302.454zM20.347 8.74c-.09 1.902 0 6.943 2.868 9.51 2.898 2.58 7.894 2.067 9.781 1.765.09-1.902 0-6.943-2.868-9.51-2.883-2.565-7.894-2.067-9.781-1.765z" fill="#051B10"/><path d="M30.807 9.72c4.03 3.593 3.155 11.14 3.155 11.14s-7.396 1.736-11.426-1.856c-4.03-3.593-3.155-11.14-3.155-11.14s7.396-1.72 11.426 1.857z" fill="#fff"/><path d="M33.887 21.6a1.04 1.04 0 01-.589-.181c-.272-.196-6.656-4.755-6.656-10.612 0-5.856 6.384-10.415 6.656-10.61a1.02 1.02 0 011.193 0c.271.195 6.656 4.754 6.656 10.61 0 5.872-6.385 10.416-6.656 10.612a1.09 1.09 0 01-.604.181zm.015-19.275c-1.48 1.207-5.193 4.618-5.193 8.467 0 3.865 3.714 7.276 5.193 8.468 1.48-1.207 5.192-4.619 5.192-8.468-.015-3.864-3.728-7.26-5.192-8.467z" fill="#051B10"/><path d="M40.106 10.807c0 5.404-6.219 9.767-6.219 9.767s-6.219-4.378-6.219-9.767c0-5.388 6.219-9.765 6.219-9.765s6.219 4.362 6.219 9.765z" fill="#fff"/><path d="M41.223 24.332c-3.925 0-6.943-1.117-7.11-1.177a1.022 1.022 0 01-.633-.725c-.076-.332 0-.68.226-.936.166-.18 4.075-4.528 9.947-5.977 5.872-1.45 11.351.559 11.593.649.317.12.558.392.634.725.075.332 0 .679-.227.935-.166.182-4.075 4.529-9.947 5.978-1.555.377-3.08.528-4.483.528zm-4.74-2.641c1.933.452 5.283.966 8.725.105 3.426-.845 6.174-2.868 7.668-4.166-1.932-.453-5.298-.966-8.725-.105-3.441.86-6.188 2.867-7.668 4.166z" fill="#051B10"/><path d="M45.45 22.808c-5.63 1.388-10.974-.62-10.974-.62s3.789-4.271 9.42-5.66c5.63-1.388 10.973.62 10.973.62s-3.789 4.256-9.42 5.66z" fill="#fff"/><path d="M26.58 24.332c-1.403 0-2.928-.136-4.482-.528-5.872-1.45-9.781-5.796-9.948-5.978-.226-.256-.316-.603-.226-.935.075-.332.317-.604.634-.725.226-.09 5.706-2.098 11.592-.649 5.872 1.464 9.782 5.796 9.948 5.977.226.257.317.604.226.936a1.022 1.022 0 01-.634.725c-.166.06-3.185 1.177-7.11 1.177zm-3.984-2.52c3.456.86 6.807.346 8.724-.106-1.494-1.298-4.226-3.321-7.668-4.166-3.456-.86-6.807-.348-8.724.105 1.494 1.283 4.241 3.306 7.668 4.166z" fill="#051B10"/><path d="M22.355 22.808c5.63 1.388 10.973-.62 10.973-.62s-3.789-4.271-9.419-5.66c-5.63-1.388-10.973.62-10.973.62s3.788 4.256 9.419 5.66z" fill="#fff"/><path d="M33.992 50.581a.503.503 0 01-.498-.498v-28.68c0-.27.226-.497.498-.497s.498.226.498.498v28.679a.503.503 0 01-.498.498z" fill="#051B10"/><path d="M41.797 62.974H26.974l-2.128-17.51h19.08l-2.13 17.51z" fill="#fff"/><path opacity=".3" d="M40.242 61.117H28.559l-1.69-13.796h15.033l-1.66 13.796z" fill="#166D44"/></g><defs><clipPath id="clip0"><path fill="#fff" transform="translate(8)" d="M0 0h47.909v64H0z"/></clipPath></defs></svg>