<svg width="64" height="64" fill="none" xmlns="http://www.w3.org/2000/svg"><g clip-path="url(#clip0)"><path opacity=".3" d="M51.625 32.377C51.625 45.98 40.52 57 26.812 57 13.105 57 2 45.98 2 32.377 2 18.774 13.105 7.754 26.812 7.754c13.708 0 24.813 11.02 24.813 24.623z" fill="#166D44"/><path d="M27.297 52.027c0-2.374-1.777-4.299-3.96-4.299-2.182 0-3.427 1.99-3.96 4.3-1.002 4.298 5.334 4.298 7.516 4.298h26.93V26.201h-26.51v25.826h-.015z" fill="#fff"/><path opacity=".3" d="M46.505 47.303v3.341h1.201c.328 0 .64.13.874.371l.952.985h.483V40.04l-3.495 3.615v3.648h-.015zM46 30v12l3.423-2.809c-1.872-2.258-1.96-4.297.572-6.638.018-.016-.018.841 0 .808V30H46zm-4.302 1.937l3.496 2.582V30h-1.622c-.156.694-1.437 1.356-1.874 1.937z" fill="#166D44"/><path opacity=".3" d="M39.222 33.955c-.13 0-.26 0-.39-.017-1.565-.096-3.08-.823-4.285-2.001-.554-.549-.994-1.21-1.37-1.937H27v22h15.627a31.92 31.92 0 001.157-.936l.05-.049a.64.64 0 01.162-.129c.7-.613 1.369.741 2.004.047V36.44L42 32c-.912.678-1.588 1.955-2.778 1.955z" fill="#166D44"/><path d="M23.385 47.712c2.393 0 4.332 1.925 4.332 4.3V26.184c0-2.374-1.94-4.299-4.332-4.299s-4.332 1.925-4.332 4.3V52.01c0-2.374 1.94-4.299 4.332-4.299z" fill="#fff"/><path opacity=".3" d="M46.484 52.813h-1.147c-.324 0-.615.113-.841.289l-1.81 1.508c-.114.096-.033.273.129.273h6.19c.179 0 .26-.177.13-.273l-1.81-1.508a1.364 1.364 0 00-.84-.289z" fill="#166D44"/><path d="M41.15 24.757c2.23 2.214 2.425 5.438.534 7.315-1.892 1.877-5.14 1.7-7.371-.53-2.894-2.87-2.894-9.672-2.894-9.672s6.822.016 9.731 2.887zM46 7.914s4.816 4.829 4.816 8.887c-.016 3.144-2.182 5.534-4.865 5.534-2.683-.016-4.833-2.438-4.833-5.582.016-4.058 4.881-8.839 4.881-8.839z" fill="#166D44"/><path d="M45.967 22.96h-.016c-1.487 0-2.877-.657-3.895-1.828-1.019-1.155-1.568-2.71-1.568-4.379.016-4.283 4.865-9.095 5.06-9.304L46 7l.452.45c.21.208 5.011 5.052 4.995 9.335-.016 3.481-2.425 6.176-5.48 6.176zM46 8.846c-1.18 1.283-4.22 4.876-4.22 7.924 0 1.348.437 2.615 1.245 3.529.776.882 1.827 1.38 2.926 1.38h.016c2.344 0 4.187-2.15 4.203-4.893 0-3.032-3.007-6.657-4.17-7.94z" fill="#051B10"/><path d="M50.574 31.944c-2.23 2.213-2.424 5.438-.533 7.315 1.891 1.876 5.14 1.7 7.37-.53 2.894-2.871 2.894-9.672 2.894-9.672s-6.837 0-9.73 2.887z" fill="#166D44"/><path d="M60.321 28.399c-.064 0-1.859.16-2.877.256-.566.049-1.132.129-1.681.241-.34.064-.695.16-1.05.24V26.09a.577.577 0 00-.583-.578H42.621a7.155 7.155 0 00-1.002-1.235c-3.055-3.032-9.925-3.064-10.216-3.064h-.679v.674c0 .128 0 1.7.323 3.625h-2.699a5.004 5.004 0 00-5.14-4.299c-2.716.097-4.833 2.375-4.833 5.07v25.73c0 2.742 2.247 4.972 5.01 4.972H54.13a.577.577 0 00.582-.578V41.008a6.839 6.839 0 003.184-1.829c3.056-3.031 3.088-9.849 3.088-10.138v-.673h-.663v.032zm-17.037-1.54h9.488c.324 0 .582.256.582.577v2.102c-1.228.449-2.392 1.058-3.265 1.909-2.295 2.277-2.667 5.566-.97 7.764l-2.586 2.566V22.784a.71.71 0 00-.614-.705.678.678 0 00-.744.673v11.855L42.59 32.04c1.131-1.444 1.342-3.368.695-5.181zm-8.212-3.946c2.57.449 4.51 1.25 5.593 2.326 1.746 1.732 2.118 4.186.954 5.839l-.954.946c-.71.481-1.584.706-2.505.642-1.229-.08-2.425-.642-3.378-1.604-2.15-2.134-2.587-6.738-2.668-8.502.663.064 1.746.144 2.958.353zM19.732 26.2c0-2.005 1.65-3.625 3.654-3.625s3.653 1.636 3.653 3.625v22.426a4.984 4.984 0 00-3.653-1.573 5.02 5.02 0 00-3.654 1.573V26.2zm3.75 29.452c-1.988 0-3.669-1.524-3.75-3.497-.08-2.07 1.6-3.77 3.654-3.77 2.02 0 3.653 1.636 3.653 3.625h1.357V26.86h2.91c.437 1.877 1.196 3.866 2.506 5.165 1.196 1.187 2.7 1.893 4.25 1.99.13.015.26.015.389.015 1.18 0 2.279-.369 3.184-1.043l3.54 3.514v14.116h-1.244c-.34 0-.663.128-.906.369l-4.687 4.651H23.483v.017zm16.78 0l3.313-3.289c.258-.256.598-.385.937-.385h2.668c.355 0 .695.145.937.385l3.314 3.289H40.26zm13.092-.017L48.683 51a1.276 1.276 0 00-.905-.37h-1.245v-6.945l3.637-3.61c.436.578 2.473 1.14 3.071 1.14h.097v14.42h.016zm5.933-22.906c-.453 2.55-1.326 4.395-2.344 5.534-1.988 2.214-4.64 1.588-5.82.882l-1.034-.882c-1.148-1.668-.792-4.107.954-5.839 2.15-2.133 6.789-2.566 8.567-2.647a24.581 24.581 0 01-.323 2.952z" fill="#051B10"/></g><defs><clipPath id="clip0"><path fill="#fff" transform="translate(2 7)" d="M0 0h59v50H0z"/></clipPath></defs></svg>