<svg width="66" height="66" fill="none" xmlns="http://www.w3.org/2000/svg"><g clip-path="url(#clip0)"><path opacity=".3" d="M57.504 33.46c0 13.673-11.078 24.751-24.752 24.751S8 47.117 8 33.46C8 19.802 19.078 8.708 32.752 8.708S57.504 19.786 57.504 33.46z" fill="#166D44"/><path d="M38.25 21.898c-5.756 0-10.448-4.692-10.448-10.449S32.494 1 38.25 1C44.007 1 48.7 5.692 48.7 11.449c0 5.773-4.677 10.449-10.45 10.449zm0-18.705c-4.547 0-8.255 3.709-8.255 8.256 0 4.547 3.708 8.256 8.256 8.256 4.547 0 8.256-3.709 8.256-8.256 0-4.547-3.709-8.256-8.256-8.256z" fill="#051B10"/><path d="M47.603 11.449c0 5.16-4.192 9.353-9.352 9.353s-9.353-4.193-9.353-9.353 4.193-9.352 9.353-9.352 9.352 4.192 9.352 9.352z" fill="#fff"/><path d="M38.25 16.432a4.996 4.996 0 01-4.982-4.983 4.996 4.996 0 014.982-4.983 4.996 4.996 0 014.983 4.983 4.986 4.986 0 01-4.983 4.983zm0-7.757a2.79 2.79 0 000 5.58 2.79 2.79 0 000-5.58z" fill="#051B10"/><path d="M42.136 11.449a3.888 3.888 0 01-3.886 3.886 3.888 3.888 0 01-3.886-3.886 3.888 3.888 0 013.886-3.886 3.888 3.888 0 013.886 3.886z" fill="#fff"/><path d="M38.798 49.117a.74.74 0 01-.741-.742V21.721a.74.74 0 01.741-.742.73.73 0 01.742.742v26.654a.74.74 0 01-.742.742z" fill="#051B10"/><path d="M40.41 46.295c-.435 0-.838-.258-1.015-.661l-2.903-6.676a1.082 1.082 0 01.113-1.08c.226-.323.597-.5.984-.452l1.483.13.661-5.87c.033-.306.194-.58.436-.758a1.07 1.07 0 01.855-.194l2.047.355.29-4.87c.017-.37.226-.709.549-.886.322-.194.71-.194 1.048-.033l1.435.71.613-5.386a1.086 1.086 0 011.193-.967l2.048.177 3.144-3.128a1.08 1.08 0 011.145-.258c.403.145.678.5.726.919l.468 4.337.564 2.306a1.09 1.09 0 01-.306 1.065l-3.919 3.74 1.435.71c.323.161.565.484.597.855.048.37-.097.725-.371.967l-3.709 3.177 1.532 1.419c.226.21.355.5.355.806 0 .306-.113.597-.339.806l-4.273 4.08 1 1.113c.258.29.355.693.242 1.064a1.11 1.11 0 01-.79.742l-7.063 1.725c-.097.016-.194.016-.274.016zm-1.16-6.514l1.79 4.128 4.37-1.065-.484-.532a1.091 1.091 0 01.064-1.532l4.209-4.015-1.58-1.451a1.135 1.135 0 01-.355-.822c0-.307.145-.613.387-.807l3.37-2.902-1.355-.677a1.089 1.089 0 01-.596-.823 1.14 1.14 0 01.322-.967l4.596-4.386-.435-1.774c-.017-.048-.017-.097-.033-.145l-.225-2.129-1.887 1.87a1.095 1.095 0 01-.87.323l-1.484-.129-.661 5.87a1.078 1.078 0 01-.565.838 1.08 1.08 0 01-1.016.017l-1.354-.678-.274 4.435a1.17 1.17 0 01-.42.806 1.124 1.124 0 01-.87.226l-2.113-.371-.645 5.773a1.086 1.086 0 01-1.193.967l-.693-.048z" fill="#051B10"/><path d="M50.812 36.75l-2.435-2.258 4.644-3.983-2.854-1.42 5.047-4.82-.597-2.387-.467-4.418-3.515 3.499-2.548-.226-.79 6.934-2.854-1.42-.371 6.096-3.258-.58-.79 6.933-2.547-.226 2.902 6.676 7.063-1.725-1.726-1.903 5.096-4.773z" fill="#166D44"/><path d="M38.75 48.327c-.08 0-.161-.016-.242-.032l-6.982-1.565a1.077 1.077 0 01-.806-.741 1.144 1.144 0 01.242-1.08l.983-1.065-4.128-3.822a1.1 1.1 0 01-.355-.806 1.1 1.1 0 01.355-.806l1.516-1.37-3.564-2.984a1.083 1.083 0 01-.387-.967c.049-.371.274-.694.597-.855l1.419-.71-3.773-3.499a1.067 1.067 0 01-.307-1.096l.597-2.241.532-4.209c.048-.42.339-.758.726-.903a1.08 1.08 0 011.128.242l3.064 2.967 2.032-.21a1.103 1.103 0 011.21.984l.515 5.128 1.42-.71a1.145 1.145 0 011.047.032 1.1 1.1 0 01.532.903l.21 4.644 2-.37c.306-.049.612.016.854.21.242.176.403.467.436.773l.564 5.612 1.435-.146a1.09 1.09 0 011 .452c.226.322.274.742.113 1.096l-2.983 6.515a1.087 1.087 0 01-1 .629zm-4.87-3.306l4.241.951 1.806-3.95-.629.064c-.29.017-.58-.064-.806-.242a1.103 1.103 0 01-.403-.741l-.548-5.515-2.064.387a1.1 1.1 0 01-.887-.226 1.11 1.11 0 01-.42-.806l-.193-4.209-1.338.662c-.323.16-.71.145-1.016-.017a1.092 1.092 0 01-.565-.854l-.564-5.612-1.435.145a1.083 1.083 0 01-.871-.306L26.35 22.93l-.258 2.096a.47.47 0 01-.032.145l-.452 1.677 4.45 4.128c.259.242.387.613.34.968a1.089 1.089 0 01-.598.822l-1.338.661 3.241 2.693c.242.21.387.5.403.823 0 .322-.129.628-.354.838L30.188 39.2l4.063 3.773c.21.194.339.468.355.758.016.29-.097.58-.29.79l-.436.5z" fill="#051B10"/><path d="M28.56 39.216l2.45-2.225-4.547-3.773 2.854-1.42-4.934-4.579.629-2.322.532-4.289 3.434 3.322 2.532-.258.661 6.708 2.854-1.42.274 5.902 3.242-.612.66 6.708 2.532-.258-2.983 6.514-6.982-1.564 1.742-1.87-4.95-4.564z" fill="#166D44"/><path d="M49.619 65H30.253c-.532 0-1-.387-1.08-.92l-3.048-18.898a1.094 1.094 0 01.242-.886c.21-.242.516-.387.838-.387h25.478c.322 0 .629.145.838.387.21.241.307.564.242.886l-3.047 18.899a1.11 1.11 0 01-1.097.919zm-18.415-2.193H48.7l2.693-16.705H28.495l2.71 16.705z" fill="#051B10"/><path d="M52.682 45.005H27.205l3.048 18.898h19.366l3.063-18.898z" fill="#fff"/><path opacity=".3" d="M50 47H30l2.392 15h15.201L50 47z" fill="#166D44"/></g><defs><clipPath id="clip0"><path fill="#fff" transform="translate(8 1)" d="M0 0h50v64H0z"/></clipPath></defs></svg>