<svg width="89" height="36" fill="none" xmlns="http://www.w3.org/2000/svg"><g clip-path="url(#clip0)" fill="#fff"><path d="M45.92 17.38c1.402 2 2.77 3.94 4.205 5.982h-1.513v.829h13.339v-.838c-.205 0-.393-.025-.573.009-.504.085-.786-.145-1.068-.555-1.546-2.24-3.127-4.452-4.69-6.674-.488-.692-.975-1.393-1.462-2.076.043-.069.06-.112.085-.146 2.06-2.102 4.128-4.212 6.195-6.315.086-.085.214-.179.317-.179.982-.017 1.956-.009 2.999-.009v11.006c0 2.555 1.307 4.29 3.478 5.444.453.239 1.034.341 1.555.35 2.606.034 5.212.017 7.819.017h.461v-.897h-4.144V7.39h4.144v-.854H72.88V-.01H72v6.554H53.466v.872h5.648c-1.897 1.974-3.717 3.854-5.571 5.785-1.359-1.931-2.692-3.82-4.093-5.802h1.82v-.82H37.23v.828c.41 0 .795.026 1.18-.008.35-.026.564.094.769.384 1.965 2.812 3.939 5.615 5.913 8.426.085.12.17.248.239.359-.043.068-.051.094-.068.12a2259.122 2259.122 0 01-6.324 6.476c-.11.111-.324.171-.487.18-.401.026-.811.008-1.222.008v.846h9.4v-.846h-6.546c1.991-2.033 3.888-3.973 5.837-5.973zm-34.572 5.973V7.4h4.187v-.855h-4.23V.017h-.872V6.58H0v.854h2.179v.555c0 3.436.017 6.862-.009 10.297-.017 1.778.624 3.247 1.88 4.46 1.009.975 2.154 1.547 3.632 1.513 2.444-.06 4.896-.017 7.349-.017h.504v-.88c-1.41-.009-2.786-.009-4.187-.009zm22.883-8.373H17.885c-.111.845-.111.845.675.845h14.996c.778.009.778.009.675-.846zm1.505 8.425H17.868v.794h17.868v-.794zM17.842 7.374h17.184V6.58h-17.15c-.017.102-.034.18-.034.265-.009.162 0 .333 0 .53zm.051 2.538c-.145.88-.145.889.641.889h11.117c.154-.872.137-.889-.65-.889H17.894zM29.59 19.995h-2.605c-2.906 0-5.802 0-8.708.009-.145 0-.35.025-.41.11-.24.368.017.77.462.77h11.253c.009-.325.009-.573.009-.889zm-.375-6.716H18.372c-.555 0-.555 0-.538.572 0 .094.034.188.05.265h11.331v-.837zm-11.356 9.228h11.1v-.794h-11.1v.794zm0-5.024h10.818v-.803H17.859v.803zM56.14 31.087v3.067c0 .59 0 .59.573.573.068 0 .136-.017.222-.034v-4.35h-3.538v4.358h.812v-3.623c.666.009 1.256.009 1.931.009zM27.925 11.638H17.868v.803h10.057v-.803zm-10.057 7.52h9.818v-.803h-9.818v.803zm0-10.083h9.716v-.812h-9.716v.812zM8.887 32.83v-.727H7.152v-1.05H9.23v-.693H6.332v4.35h2.923v-.727H7.152v-1.145c.582-.008 1.146-.008 1.735-.008zm79.203-9.434h-8.997v.803h8.998v-.803zm-70.231 7.383c-1.025-.82-2.598-.718-3.41.188-.786.889-.743 2.384.112 3.23.82.812 2.418.854 3.29.068a35.356 35.356 0 01-.334-.58c-1.145.503-1.914.46-2.41-.138-.452-.538-.512-1.384-.076-1.94.726-.93 1.606-.666 2.495-.23.11-.213.213-.393.333-.598zm47.595.854v3.068h.718v-1.974c.3.3.522.616.744.94.23.325.384.325.606.009.231-.325.453-.658.684-.992.034.018.068.026.111.043v1.983h.675v-3.06c-.504-.145-.837-.017-1.077.428-.179.342-.427.64-.683 1.008-.257-.367-.496-.658-.658-.983-.248-.478-.598-.606-1.12-.47zm7.375.009c-.462-.128-.778-.043-1.034.359-.36.555-.778 1.068-1.171 1.598a.42.42 0 01-.094-.034v-1.948h-.684v3.076c.496.128.812-.017 1.069-.428.264-.435.598-.828.905-1.239.077-.102.163-.188.248-.29.034.017.06.034.094.051v1.914h.675c-.008-1.025-.008-2.034-.008-3.059zm-24.925-.026v3.077c.452.11.777.042 1.025-.376.273-.462.632-.872.957-1.308.068-.094.154-.17.316-.35v2.05h.667v-3.067c-.453-.12-.778-.051-1.026.367-.256.428-.58.804-.88 1.205-.094.129-.197.248-.29.368a97.848 97.848 0 00-.103-.052v-1.914h-.666zM27.37 34.718v-1.23h1.589V34.7h.692v-3.085h-.71v1.12h-1.58v-1.12h-.7v3.094c.221.008.435.008.709.008zm-6.682-3.658h1.273v-.7h-3.435v.718h1.324v3.632h.838v-3.65zm-17.185.01v3.64h.829v-3.658h1.299v-.709H2.213v.718c.418.009.812.009 1.29.009zm40.777.897c-.786-.675-1.854-.624-2.478.102a1.68 1.68 0 00.163 2.342c.649.59 1.726.547 2.298-.086-.094-.145-.197-.299-.29-.444-.855.35-1.325.316-1.667-.111a.987.987 0 01-.008-1.188c.341-.453.76-.496 1.683-.145.085-.145.188-.3.3-.47z"/><path d="M11.937 32.47l1.743-2.084c-.025-.034-.043-.077-.068-.111-.282.051-.658.017-.83.18-.614.632-1.153 1.324-1.725 2.007.521.624 1.06 1.197 1.512 1.829.342.496.752.479 1.308.393a142.96 142.96 0 01-1.94-2.213zm35.453-.845h-2.819v.65h1.051v2.435h.735v-2.461h1.034v-.624zm-36.461 3.093v-4.366h-.77v4.366h.77zm15.27 1.145c.128-.41.017-.564-.385-.555-1.093.017-2.187 0-3.28.008-.454 0-.488.06-.343.547H26.2zM45.92 17.38c-1.948 2-3.845 3.94-5.836 5.973h6.546v.846h-9.4v-.846c.41 0 .82.017 1.222-.008.171-.009.376-.069.487-.18 2.12-2.153 4.221-4.315 6.324-6.477a.537.537 0 00.068-.12c-.068-.11-.154-.23-.24-.358a2969.428 2969.428 0 01-5.912-8.426c-.206-.29-.42-.418-.77-.384-.376.034-.76.008-1.179.008V6.58h14.04v.82h-1.82c1.401 1.982 2.734 3.87 4.093 5.802 1.854-1.923 3.674-3.811 5.571-5.785h-5.648v-.872H72V-.009h.88v6.546h4.187v.854h-4.144v15.937h4.144v.897h-.461c-2.607 0-5.213.017-7.82-.017-.52-.009-1.101-.111-1.554-.35-2.17-1.146-3.478-2.889-3.478-5.444V7.408c-1.043 0-2.025-.008-3 .009-.11 0-.239.094-.316.18-2.067 2.102-4.127 4.204-6.195 6.314-.025.026-.042.069-.085.146.478.683.974 1.384 1.461 2.076 1.564 2.222 3.145 4.435 4.691 6.674.282.41.564.64 1.068.555.18-.026.36-.009.573-.009v.838H48.612v-.83h1.513c-1.436-2.041-2.803-3.981-4.204-5.98zm-34.572 5.973h4.187v.88h-.504c-2.453 0-4.897-.042-7.35.018-1.469.034-2.622-.539-3.63-1.513-1.257-1.213-1.898-2.691-1.88-4.46.025-3.435.008-6.862.008-10.297v-.555H0V6.57h10.433V.01h.872v6.528h4.23v.854h-4.187v15.962zm22.883-8.373c.111.845.111.845-.675.845H18.56c-.786 0-.786 0-.675-.846H34.23zm1.505 8.425v.794H17.868v-.794h17.868zM17.842 7.374v-.53c0-.085.017-.162.034-.264h17.15v.794H17.842zm.051 2.538H29.01c.786 0 .795.017.65.889H18.543c-.795 0-.795-.009-.65-.889zm11.698 10.083v.889H18.337c-.444 0-.7-.402-.461-.77.06-.093.273-.11.41-.11 2.905-.009 5.802-.009 8.707-.009h2.598zm-.375-6.716v.837H17.885c-.017-.077-.043-.17-.051-.265-.026-.572-.026-.572.538-.572h10.844zm-11.357 9.228v-.794h11.1v.794h-11.1zm0-5.024v-.803h10.818v.803H17.859zM56.14 31.087h-1.922v3.623h-.812v-4.358h3.538v4.35c-.086.008-.154.025-.222.033-.573.017-.573.017-.573-.572-.008-1.017-.008-2.025-.008-3.076zM27.925 11.638v.803H17.868v-.803h10.057zm-10.057 7.52v-.803h9.818v.803h-9.818zm0-10.083v-.812h9.716v.812h-9.716zM8.887 32.83H7.144v1.145h2.102v.726H6.323v-4.35H9.22v.693H7.144v1.05h1.734c.009.249.009.454.009.736zm79.203-9.434v.803h-8.997v-.803h8.998z"/><path d="M17.86 30.779c-.112.205-.223.384-.334.598-.889-.427-1.769-.692-2.495.23-.436.556-.367 1.402.077 1.94.495.599 1.265.641 2.41.137.11.197.222.385.333.581-.872.786-2.47.744-3.29-.068-.846-.846-.897-2.341-.111-3.23.812-.906 2.384-1.008 3.41-.188zm43.724.829c.281.017.623-.197.726.282.88-.521 1.615-.47 2.119.145.53.641.504 1.726-.06 2.324-.538.581-1.239.616-2.102.052v1.597h-.684v-4.4zm1.486.564c-.495-.009-.812.265-.82.7-.017.966.18 1.282.803 1.282.522 0 .974-.461.983-.982a1 1 0 00-.966-1zm2.384-.538c.522-.137.872-.01 1.111.46.162.326.41.616.658.984.248-.368.496-.667.684-1.009.239-.453.58-.58 1.076-.427v3.06h-.675v-1.983c-.034-.017-.068-.026-.11-.043-.223.333-.445.666-.684.991-.223.316-.376.316-.607-.008-.222-.316-.444-.641-.743-.94v1.974h-.718c.008-1.009.008-2.026.008-3.06zm-31.137 3.067v-3.093c.675 0 1.35-.06 2 .017.709.077.828.795.264 1.453.069.06.146.11.214.17.256.223.367.505.282.838-.085.35-.333.59-.684.607-.683.034-1.358.008-2.076.008zm.735-.47c.325 0 .632.051.914-.017.154-.034.36-.265.368-.41 0-.145-.206-.376-.36-.41-.29-.069-.606-.017-.914-.017-.008.307-.008.572-.008.854zm0-1.35c.299 0 .58.051.82-.017.154-.043.333-.248.368-.41.017-.086-.223-.308-.368-.342-.265-.06-.547-.017-.82-.017v.786zm37.777-1.239v3.068h-.675v-1.914c-.034-.017-.06-.035-.094-.052-.085.094-.17.188-.248.29-.307.411-.64.804-.906 1.24-.247.41-.564.555-1.068.427v-3.076h.684v1.948c.034.009.06.017.094.034.393-.53.812-1.042 1.17-1.597.265-.41.582-.496 1.043-.368zm-24.925-.026h.666v1.914l.102.052c.095-.12.197-.24.291-.368.3-.401.624-.777.88-1.205.248-.418.573-.487 1.026-.367v3.068h-.667v-2.051c-.162.18-.248.265-.316.35-.325.427-.684.846-.957 1.308-.257.418-.573.495-1.026.376v-3.077zm12.535 2.359c.085.136.153.265.23.376-.65.598-1.726.632-2.41.094-.623-.496-.777-1.402-.358-2.12.418-.726 1.273-1.025 2.076-.717.658.248 1.026.94.88 1.692h-2.41c.052.906.727 1.128 1.992.675zm-.265-1.17c-.137-.505-.402-.719-.889-.71-.453.008-.71.222-.829.71h1.718zm-20.935-1.3c.965-.008 1.7.692 1.709 1.632.008.94-.71 1.675-1.658 1.692-.966.017-1.735-.717-1.735-1.657 0-.94.735-1.658 1.684-1.667zm.017.658a.978.978 0 00-.983 1.009.98.98 0 00.966.982 1.003 1.003 0 001.016-.99.996.996 0 00-1-1zM27.37 34.718h-.719v-3.093h.701v1.12h1.58v-1.12h.71v3.085h-.692v-1.214h-1.59c.01.393.01.778.01 1.222zM32 31.505c.958.009 1.693.744 1.675 1.675-.017.94-.769 1.658-1.717 1.64a1.658 1.658 0 01-1.675-1.683c.017-.94.752-1.64 1.718-1.632zm.966 1.641a.978.978 0 00-1.008-.983 1 1 0 00.026 2 .98.98 0 00.982-1.017zM20.688 31.06v3.65h-.838v-3.632h-1.324v-.718h3.435v.7h-1.273zm-17.184.01h-1.3v-.718h3.419v.709h-1.3v3.657h-.828c.009-1.205.009-2.392.009-3.649zm40.776.897c-.111.162-.205.316-.308.461-.923-.35-1.341-.307-1.683.146-.257.35-.257.863.008 1.187.342.427.812.462 1.667.111.094.146.196.29.29.445-.572.64-1.649.675-2.298.085a1.68 1.68 0 01-.163-2.341c.633-.71 1.7-.77 2.487-.094z"/><path d="M11.938 32.47c.649.744 1.264 1.462 1.93 2.223-.546.085-.956.102-1.307-.393-.444-.641-.99-1.205-1.512-1.83.572-.683 1.11-1.383 1.726-2.007.162-.171.547-.128.829-.18.025.035.043.077.068.111-.564.667-1.128 1.35-1.735 2.077zm35.452-.845v.624h-1.033v2.46h-.735v-2.435h-1.051v-.65h2.82zm-36.461 3.093h-.77v-4.366h.77v4.366zm15.269 1.145h-4.016c-.145-.487-.11-.547.342-.547 1.094 0 2.188.009 3.281-.008.41-.009.522.145.393.555z"/></g><defs><clipPath id="clip0"><path fill="#fff" d="M0 0h88.09v36H0z"/></clipPath></defs></svg>