<svg width="18" height="18" fill="none" xmlns="http://www.w3.org/2000/svg"><path d="M7.825 6.243v1.24h-.907v1.514h.907V13.5H9.69V8.997h1.25s.119-.726.176-1.52H9.697V6.44c0-.155.203-.363.405-.363h1.015V4.5H9.736c-1.957 0-1.91 1.516-1.91 1.743z" fill="#00B746"/><path d="M3.6 1.8a1.8 1.8 0 00-1.8 1.8v10.8a1.8 1.8 0 001.8 1.8h10.8a1.8 1.8 0 001.8-1.8V3.6a1.8 1.8 0 00-1.8-1.8H3.6zm0-1.8h10.8A3.6 3.6 0 0118 3.6v10.8a3.6 3.6 0 01-3.6 3.6H3.6A3.6 3.6 0 010 14.4V3.6A3.6 3.6 0 013.6 0z" fill="#00B746"/></svg>