<svg width="36" height="36" fill="none" xmlns="http://www.w3.org/2000/svg"><path d="M35.652 17.223l-2.55-2.387a6.601 6.601 0 00-3.407-1.692A6.81 6.81 0 0030.9 9.527l.116-3.477c0-.301-.093-.58-.301-.788a.997.997 0 00-.788-.301l-3.477.116a6.81 6.81 0 00-3.617 1.205 6.783 6.783 0 00-1.692-3.408L18.777.324A1.104 1.104 0 0017.988 0c-.3 0-.58.116-.765.325l-2.387 2.55a6.601 6.601 0 00-1.692 3.407 6.81 6.81 0 00-3.617-1.205L6.05 4.96c-.301 0-.58.092-.788.301a.998.998 0 00-.301.788l.116 3.477a6.81 6.81 0 001.205 3.617 6.783 6.783 0 00-3.408 1.692l-2.55 2.387a1.09 1.09 0 00-.324.765c0 .302.116.58.325.765 0 0 1.274 1.183 2.55 2.388a6.601 6.601 0 003.407 1.692 6.81 6.81 0 00-1.205 3.617l-.116 3.477c0 .3.092.58.301.788.209.208.464.301.742.301h.046s1.739-.07 3.477-.116a6.81 6.81 0 003.617-1.205 6.783 6.783 0 001.692 3.407l2.387 2.55c.21.209.487.325.765.325.279 0 .58-.116.765-.325l2.388-2.55a6.601 6.601 0 001.692-3.407A6.81 6.81 0 0026.45 30.9c1.761.07 3.477.116 3.477.116h.046c.278 0 .556-.116.742-.301a.997.997 0 00.301-.788L30.9 26.45a6.81 6.81 0 00-1.205-3.617 6.783 6.783 0 003.407-1.692c1.275-1.205 2.55-2.388 2.55-2.388a1.09 1.09 0 00.325-.765.927.927 0 00-.325-.765z" fill="#051B10"/><path d="M26.52 7.186l2.364-.07-.07 2.365c-.07 1.785-1.182 3.408-2.828 4.08l-3.315 1.368a5.67 5.67 0 00-1.576-1.577c.301-.718.834-2.04 1.367-3.315a4.571 4.571 0 014.057-2.85z" fill="#166D44"/><path d="M17.988 21.465a3.463 3.463 0 01-3.454-3.453 3.462 3.462 0 013.454-3.454 3.462 3.462 0 013.454 3.454c.023 1.9-1.53 3.453-3.454 3.453z" fill="#fff"/><path d="M16.389 4.335l1.6-1.716 1.599 1.716a4.578 4.578 0 01.88 4.891c-.532 1.275-1.089 2.596-1.367 3.315a5.461 5.461 0 00-2.248 0l-1.368-3.315c-.672-1.669-.325-3.593.904-4.891zM9.457 7.186c1.785.07 3.408 1.182 4.08 2.828l1.368 3.315a5.67 5.67 0 00-1.576 1.576l-3.315-1.367c-1.67-.696-2.782-2.295-2.828-4.08l-.07-2.365 2.341.093zM2.596 17.988l1.715-1.6a4.578 4.578 0 014.891-.88l3.315 1.368a5.462 5.462 0 000 2.248l-3.315 1.368a4.578 4.578 0 01-4.89-.88c-.627-.58-1.23-1.16-1.716-1.624zm6.862 10.826c-.857.023-1.715.07-2.364.07l.07-2.365c.069-1.785 1.182-3.408 2.827-4.08l3.315-1.368a5.67 5.67 0 001.577 1.577l-1.368 3.315c-.65 1.669-2.249 2.781-4.057 2.85zm10.154 2.851l-1.6 1.715-1.6-1.715a4.578 4.578 0 01-.88-4.891l1.367-3.315a5.461 5.461 0 002.249 0c.301.719.834 2.04 1.368 3.315.672 1.669.324 3.593-.904 4.891zm6.907-2.851c-1.785-.07-3.408-1.182-4.08-2.828-.533-1.275-1.09-2.62-1.368-3.315a5.67 5.67 0 001.577-1.576l3.314 1.367c1.67.696 2.782 2.295 2.829 4.08l.07 2.365a53.42 53.42 0 00-2.342-.093zm5.146-9.203a4.577 4.577 0 01-4.891.88l-3.315-1.367a5.462 5.462 0 000-2.248l3.315-1.368a4.577 4.577 0 014.891.88l1.715 1.6c-.463.464-1.09 1.044-1.715 1.623z" fill="#166D44"/></svg>