<svg width="36" height="36" fill="none" xmlns="http://www.w3.org/2000/svg"><g clip-path="url(#clip0)"><path d="M20.735 10.101c.05-.05.182-.083.265-.083h1.54c.695 0 1.408 0 2.103-.016.795-.017 1.424-.083 1.987-.215 3.858-.878 6.442-4.24 6.442-8.346 0-.249 0-1.01-.795-1.375L32.194 0h-5.15l-.05.017c-.198.05-.38.099-.58.132-.43.1-.877.215-1.324.348-.91.298-1.755.778-2.583 1.507a1.273 1.273 0 00-.414.629c-1.59 1.772-2.5 4.338-2.484 5.829 0 .116-.017.165-.116.248-1.904 1.606-3.047 3.66-3.395 6.11-.016.133-.033.249-.05.381-.016-.033-.016-.082-.016-.165v-.017c-.016-.53-.033-1.093-.149-1.64-.314-2.135-1.821-3.973-4.239-5.182-2.037-1.027-4.67-1.54-7.005-1.375-.033 0-.066 0-.099.017-.58 0-1.16.298-1.474.778l-.066.1v1.622l.017.05c.016.033.016.066.033.1.016.033.016.082.033.099.43 3.742 3.726 6.806 7.485 6.971.811.034 1.622.034 2.417.034.547 0 1.093 0 1.64.016.099 0 .232.05.298.116.679.63 1.043 1.374 1.06 2.202.033 1.308.033 2.65.033 3.958v.017c-.315-1.789-1.408-3.064-3.18-3.71-1.093-.397-2.202-.33-3.279-.281-.165.016-.314.016-.48.033-.58.033-.977.48-.993 1.159-.1 2.368 1.64 4.52 3.924 4.902.58.099 1.176.099 1.739.099.315 0 .63 0 .927.017.133 0 .249.05.298.099.646.546.977 1.225 1.01 2.004.034.761.034 1.556.034 2.301V30.8l-.646.249c-.232.083-.43.165-.662.248-.183.066-.381.133-.53.116a3.713 3.713 0 00-2.733.91c-.745.647-1.175 1.524-1.225 2.452-.017.265 0 .645.265.927.265.281.646.315.91.315h11.279c.447 0 .695-.183.828-.332.132-.149.281-.43.231-.877-.182-1.656-1.507-2.799-3.162-2.7-.265.017-.415-.033-.564-.165a4.106 4.106 0 00-2.12-1.143v-8.528c0-.91.382-1.672 1.127-2.252a.408.408 0 01.182-.066h2.401c1.722-.017 3.295-.662 4.438-1.822 1.11-1.142 1.722-2.699 1.706-4.371-.017-.828-.48-1.275-1.308-1.275h-2.435c-3.345 0-5.945 2.484-6.11 5.829v-2.219c.033-2.434.993-4.455 2.848-5.995z" fill="#051B10"/><path d="M21.083 7.766c.083-.944 1.093-3.593 2.285-4.421a.97.97 0 00.1-.248c.049-.05.115-.1.165-.133 1.159-.927 2.484-1.44 3.974-1.49 1.275-.033 2.567-.017 3.842-.017.05 0 .1.017.149.017.116 2.55-1.308 5.166-3.908 6.425-1.722.828-3.544.662-5.349.629 0 0-.016-.017-.033-.05.1-.082.199-.165.315-.231 1.358-.96 2.732-1.921 4.09-2.882.1-.066.215-.132.298-.232.166-.198.199-.414.05-.629-.15-.199-.365-.281-.596-.182-.1.033-.183.1-.265.149-1.574 1.11-3.147 2.202-4.72 3.312a5.78 5.78 0 01-.397.265.793.793 0 010-.282zm-9.455 4.803c-.68-.48-1.358-.96-2.054-1.441-.265-.182-.563-.133-.728.083-.183.248-.116.546.149.745.05.05.116.083.165.116l3.825 2.682c.133.1.265.2.464.348-.182.017-.281.033-.38.033h-2.021a6.627 6.627 0 01-6.342-4.852 5.97 5.97 0 01-.232-1.954c.182-.016.331 0 .48-.033.066-.016.116-.033.166-.05h.298c3.08 0 8.13 1.358 9.008 5.167.1.38.133.778.199 1.275-1.06-.745-2.02-1.424-2.997-2.12z" fill="#166D44"/><path d="M11.66 22.338l1.491 1.044c.083.066.182.132.282.198-1.673.58-4.107-1.457-3.859-3.295.845.066 1.722.017 2.534.199 1.341.298 2.136 1.225 2.417 2.6l-1.987-1.391c-.099-.067-.198-.15-.314-.216-.282-.165-.563-.116-.729.133-.149.232-.083.546.166.729zm8.96-7.087c.927-.944 2.086-1.374 3.394-1.358h2.236c-.017 1.143-.38 2.136-1.11 2.997-1.225 1.441-2.848 1.74-4.67 1.574.1-.083.183-.15.266-.216.811-.563 1.606-1.126 2.417-1.689.216-.149.381-.33.315-.629-.1-.38-.48-.513-.845-.265-.645.43-1.275.894-1.904 1.341-.447.315-.894.63-1.39.977.132-1.109.562-2.003 1.29-2.732z" fill="#000"/><path d="M19.112 33.053c.364.33.795.496 1.275.48.166 0 .315-.017.48 0 .613.05 1.176.496 1.259 1.026H19.89c-.546-.016-2.533-.016-2.616-.016h-5.581c.017-.1.017-.166.05-.232.331-.96 1.275-1.573 2.335-1.457.43.05.811-.033 1.192-.249 1.408-.794 2.65-.645 3.842.448z" fill="#fff"/><path d="M19.344 17.967c.132-1.093.563-1.987 1.291-2.716.928-.944 2.087-1.374 3.395-1.358h2.236c-.017 1.143-.381 2.136-1.11 2.997-1.225 1.441-2.848 1.74-4.67 1.574.1-.083.183-.15.265-.216.812-.563 1.607-1.126 2.418-1.689.215-.149.38-.33.315-.629-.1-.38-.48-.513-.845-.265-.646.43-1.275.894-1.904 1.341-.447.299-.895.613-1.391.96zM14.525 23.1l-1.987-1.39c-.099-.067-.198-.15-.314-.216-.282-.166-.563-.116-.729.133-.149.231-.1.53.166.728l1.49 1.043c.083.067.182.133.282.2-1.673.579-4.107-1.458-3.859-3.296.845.066 1.722.016 2.534.198 1.341.299 2.136 1.226 2.417 2.6z" fill="#166D44"/></g><defs><clipPath id="clip0"><path fill="#fff" d="M0 0h36v36H0z"/></clipPath></defs></svg>