<svg width="36" height="36" fill="none" xmlns="http://www.w3.org/2000/svg"><path d="M30.307 34.6H7.017V3.7C7.017 2.128 8.205.863 9.68.863h19.495c.614 0 1.131.536 1.131 1.207V34.6z" fill="#fff"/><path d="M29.79 30.575H7.36V3.163c0-1.38 1.15-2.511 2.569-2.511h18.767c.594 0 1.092.479 1.092 1.054v28.87z" fill="#166D44"/><path d="M29.06 0H9.567A3.559 3.559 0 006 3.566v29.06A3.379 3.379 0 009.374 36h19.84a1.882 1.882 0 001.879-1.879V2.032C31.093.901 30.173 0 29.06 0zM9.375 31.054H29.29v.671H11.157a.9.9 0 100 1.802H29.29v.614c0 .038-.039.076-.077.076H9.374a1.579 1.579 0 01-1.572-1.572c0-.862.71-1.59 1.572-1.59zm.191-29.252h19.496c.134 0 .23.096.23.23v27.22H9.374c-.556 0-1.093.135-1.572.384V3.757c0-1.112.748-1.955 1.764-1.955z" fill="#051B10"/><path d="M17.003 15.029c.096.134.173.249.25.383.057.096.095.173.153.268.038.096.096.192.134.288.038.096.077.192.115.307.02.057.038.096.038.153.02.096.058.21.077.326a.53.53 0 01.02.172c.018.173.038.326.038.518v.173c-.02.421-.096.843-.269 1.303 0 0-.537-.057-1.208-.307-.038-.019-.076-.019-.095-.038a5.238 5.238 0 01-.978-.498 3.7 3.7 0 01-.537-.422c-.076-.058-.134-.134-.21-.192-.039-.038-.058-.076-.097-.115-.057-.076-.134-.153-.191-.23a2.683 2.683 0 01-.173-.249 3.363 3.363 0 01-.402-.882c-.288-.882-.326-2.013.096-3.489 0 0 1.092.441 2.166 1.342.076.058.153.115.21.192.173.153.365.345.518.537.096.134.23.306.345.46zm2.722-.134c-.096.134-.191.249-.287.402l-.173.288c-.057.095-.096.191-.153.287-.038.096-.096.211-.134.307-.02.057-.039.115-.058.153-.038.115-.057.211-.096.326-.019.058-.019.115-.038.173a2.427 2.427 0 00-.058.536v.192c0 .441.058.901.211 1.4 0 0 .556-.02 1.285-.25.038-.019.076-.019.115-.038a6.257 6.257 0 001.054-.46 5.37 5.37 0 00.594-.403c.077-.057.154-.134.23-.191l.115-.115c.077-.077.134-.154.211-.23.077-.077.134-.173.192-.25a4.02 4.02 0 00.48-.9c.344-.902.46-2.09.114-3.662 0 0-1.188.403-2.338 1.265a9.186 9.186 0 00-.25.192 4.828 4.828 0 00-.575.518 2.51 2.51 0 00-.44.46z" fill="#fff"/><path d="M24.69 11.425l-.21-1.016-.978.326a12.78 12.78 0 00-2.607 1.322c-.46-.92-1.17-1.802-2.09-2.683l-.728-.69-.594.805c-.039.057-.844 1.17-1.438 2.741-1.227-.901-2.339-1.361-2.396-1.38l-.92-.384-.269.959c-.517 1.878-.556 3.508-.115 4.869.154.46.345.9.614 1.303.076.135.172.25.249.365.076.115.172.23.268.345.039.057.096.096.154.153.095.096.191.21.306.288.23.21.499.421.786.613.422.287.882.517 1.4.71.057.018.095.038.153.057.575.21 1.054.326 1.38.364l.038.134.71-.019h.057l.25.02.019-.04a8.683 8.683 0 001.514-.306c.058-.02.096-.038.153-.057a7.559 7.559 0 001.496-.671c.306-.173.594-.364.843-.595.115-.095.23-.191.326-.287.057-.058.115-.096.153-.154.115-.114.211-.23.307-.345.096-.114.192-.249.287-.364.288-.402.537-.843.71-1.322.537-1.4.594-3.106.172-5.061zm-5.463 5.463v-.057c0-.02 0-.039-.02-.058v-.02a1.3 1.3 0 01.058-.152c.039-.096.077-.211.134-.307.058-.096.096-.211.154-.307.038-.057.077-.134.115-.191-.02.038-.02.095-.038.134-.058.23-.154.44-.25.67-.038.058-.095.173-.153.288zm-.02-3.47c-.21.211-.402.422-.593.652l-.02.02-.345.46c-.057-.077-.095-.154-.153-.211l-.02-.02a7.7 7.7 0 00-.517-.651c-.038-.039-.076-.077-.096-.115 0-.039.02-.058.02-.096.038-.096.057-.211.095-.307.211-.652.499-1.227.729-1.668.498.575.863 1.131 1.093 1.706a1.006 1.006 0 01-.192.23zm-3.737 2.493l.057.46c.02.153.058.306.096.46l.058.23c.038.153.096.306.153.46.038.076.058.153.096.23.057.134.134.268.21.402a3.37 3.37 0 01-.44-.268 4.31 4.31 0 01-.556-.441c-.077-.057-.134-.134-.21-.21-.04-.04-.058-.078-.097-.116a2.037 2.037 0 01-.191-.23c-.058-.077-.116-.172-.173-.25a4.326 4.326 0 01-.422-.9c-.249-.786-.287-1.706-.115-2.741a9.59 9.59 0 011.495 1.035c.039.038.077.057.116.096-.039.23-.058.44-.077.67-.02.23-.02.442-.02.672-.018.134 0 .287.02.44zm5.52 1.399c.135-.307.269-.614.346-.92a3.27 3.27 0 00.096-.403c.019-.076.019-.134.038-.21l.057-.442c.02-.153.02-.306.02-.44a6.1 6.1 0 00-.077-1.016 11.658 11.658 0 011.59-.959c.116 1.112.02 2.09-.287 2.895a4.272 4.272 0 01-.498.92c-.058.096-.134.172-.192.249a2.306 2.306 0 01-.21.23l-.116.115c-.076.077-.153.134-.23.21a6.944 6.944 0 01-.613.423c-.134.076-.268.153-.422.21.211-.287.364-.575.499-.862z" fill="#051B10"/><path d="M16.773 14.818c-.02.153-.02.306-.02.46 0 .096 0 .21.02.307 0 .095.02.21.038.306.02.096.039.211.058.307.02.058.02.096.038.153.039.096.058.211.096.307.02.058.038.096.058.153l.23.46c.038.058.057.096.096.154.23.345.536.67.92.977 0 0 .421-.325.881-.9.02-.02.039-.058.077-.096.211-.269.403-.575.575-.94.096-.191.173-.421.25-.632.018-.096.057-.173.076-.269.02-.038.02-.095.02-.134.018-.096.038-.191.038-.287.019-.096.019-.192.019-.307 0-.307-.02-.633-.115-.958-.211-.901-.786-1.88-1.898-2.933 0 0-.71.958-1.15 2.262-.039.095-.058.172-.096.268-.077.23-.134.48-.173.728 0 .211-.019.422-.038.614z" fill="#fff"/></svg>