<svg width="36" height="36" viewBox="0 0 36 36" fill="none" xmlns="http://www.w3.org/2000/svg">
<path d="M26.4655 8.34674C26.2315 7.97621 25.7245 7.8787 25.3539 8.11272L25.3344 8.13222C21.1416 11.3695 18.1773 16.8104 16.5197 24.2601C15.3301 29.6425 15.2716 34.2449 15.2716 35.103C15.2716 35.532 15.6421 35.9025 16.0712 35.9025C16.2857 35.9025 16.4807 35.8245 16.6367 35.6685C16.7927 35.5125 16.8707 35.3175 16.8707 35.103C16.8707 34.908 16.8902 30.3446 18.0603 24.9036C19.1329 19.9112 21.4341 13.1636 26.3095 9.39983L26.329 9.38032C26.6216 9.1073 26.6801 8.67827 26.4655 8.34674Z" fill="#051B10"/>
<path d="M18.0599 9.5753C18.0989 9.73131 18.1379 9.88732 18.1769 10.0238C18.2159 10.1213 18.2549 10.2189 18.2939 10.3164C18.3329 10.4139 18.3719 10.5114 18.4304 10.6089C18.4694 10.7064 18.5279 10.8039 18.5864 10.9014C18.6059 10.9404 18.6449 10.9989 18.6644 11.0379C18.7229 11.1354 18.7814 11.2134 18.8594 11.3109C18.8985 11.3499 18.9375 11.3889 18.957 11.4475C19.074 11.584 19.191 11.701 19.3275 11.818C19.3665 11.857 19.425 11.896 19.464 11.935C19.7955 12.208 20.1856 12.442 20.6341 12.6175C20.6341 12.6175 20.9656 12.1885 21.2386 11.4865C21.2581 11.4475 21.2581 11.4084 21.2777 11.3889C21.3947 11.0769 21.5117 10.7064 21.5702 10.2969C21.6092 10.0823 21.6287 9.84832 21.6287 9.6143C21.6287 9.51679 21.6287 9.41928 21.6092 9.32177C21.6092 9.28277 21.6092 9.22427 21.5897 9.16576C21.5702 9.06825 21.5702 8.97075 21.5507 8.87324C21.5312 8.77573 21.5117 8.67822 21.4727 8.58071C21.3947 8.28819 21.2581 7.97616 21.0826 7.66414C20.6146 6.86457 19.776 6.065 18.3719 5.36295C18.3719 5.36295 17.9624 6.49404 17.9234 7.89816C17.9234 7.99566 17.9234 8.09317 17.9234 8.19068C17.9234 8.4442 17.9429 8.69772 17.9624 8.95124C17.9819 9.16576 18.0209 9.36078 18.0599 9.5753Z" fill="#166D44"/>
<path d="M26.1725 11.974C26.0165 11.9935 25.8605 12.013 25.7045 12.0325C25.607 12.052 25.49 12.0715 25.3925 12.091C25.295 12.1106 25.178 12.1496 25.0805 12.1886C24.9829 12.2276 24.8854 12.2666 24.7684 12.3056C24.7099 12.3251 24.6709 12.3446 24.6124 12.3641C24.5149 12.4031 24.4174 12.4616 24.3199 12.5201C24.2809 12.5396 24.2224 12.5786 24.1834 12.5981C24.0469 12.6956 23.9104 12.7931 23.7738 12.9101C23.7348 12.9491 23.6763 12.9881 23.6373 13.0271C23.3253 13.3197 23.0523 13.6707 22.7988 14.0997C22.7988 14.0997 23.1888 14.4702 23.8324 14.8408C23.8714 14.8603 23.8909 14.8798 23.9299 14.8993C24.2224 15.0553 24.5734 15.2113 24.9634 15.3283C25.178 15.3868 25.412 15.4453 25.646 15.4648C25.7435 15.4843 25.841 15.4843 25.9385 15.4843C25.9775 15.4843 26.036 15.4843 26.0945 15.4843C26.192 15.4843 26.2896 15.4843 26.3871 15.4843C26.4846 15.4843 26.5821 15.4648 26.6991 15.4453C27.0111 15.4063 27.3231 15.3283 27.6547 15.1918C28.5127 14.8408 29.4293 14.1192 30.3069 12.8321C30.3069 12.8321 29.2343 12.2666 27.8497 12.0325C27.7522 12.013 27.6547 11.9935 27.5572 11.9935C27.3036 11.9545 27.0501 11.935 26.7966 11.935C26.5821 11.9545 26.3676 11.9545 26.1725 11.974Z" fill="#166D44"/>
<path d="M14.4327 18.4291C14.4912 18.5656 14.5302 18.6826 14.6082 18.7996C14.6472 18.8776 14.6862 18.9556 14.7447 19.0531C14.7837 19.1311 14.8422 19.2091 14.9007 19.2871C14.9592 19.3652 15.0177 19.4432 15.0763 19.5212C15.1153 19.5602 15.1348 19.5992 15.1738 19.6382C15.2323 19.7162 15.3103 19.7747 15.3688 19.8527C15.4078 19.8917 15.4468 19.9112 15.4858 19.9502C15.6028 20.0477 15.7198 20.1452 15.8563 20.2232C15.8953 20.2427 15.9343 20.2817 15.9928 20.3012C16.3049 20.4962 16.6754 20.6328 17.1044 20.7498C17.1044 20.7498 17.3189 20.3207 17.4749 19.6967C17.4749 19.6577 17.4945 19.6382 17.4945 19.5992C17.553 19.3066 17.6115 18.9751 17.6115 18.6241C17.6115 18.4291 17.592 18.2146 17.5725 18.0195C17.553 17.9415 17.553 17.844 17.5335 17.766C17.5335 17.727 17.514 17.688 17.4945 17.649C17.4749 17.571 17.4554 17.4735 17.4164 17.3955C17.3774 17.3175 17.3579 17.22 17.3189 17.142C17.2019 16.8884 17.0654 16.6349 16.8704 16.4009C16.3634 15.7574 15.5248 15.1723 14.2377 14.7628C14.2377 14.7628 14.0232 15.7964 14.1597 17.025C14.1597 17.103 14.1792 17.2005 14.1987 17.2785C14.2377 17.493 14.2767 17.7075 14.3352 17.922C14.3157 18.078 14.3742 18.2536 14.4327 18.4291Z" fill="#166D44"/>
<path d="M21.7848 19.4822C21.6483 19.5212 21.5118 19.5407 21.3948 19.5992C21.2973 19.6382 21.2193 19.6577 21.1413 19.6967C21.0633 19.7357 20.9658 19.7747 20.8878 19.8137C20.8098 19.8527 20.7123 19.9112 20.6343 19.9502C20.5953 19.9697 20.5562 20.0087 20.5172 20.0282C20.4392 20.0867 20.3612 20.1452 20.2832 20.2037C20.2442 20.2427 20.2052 20.2622 20.1662 20.3012C20.0492 20.3987 19.9517 20.4962 19.8347 20.6133C19.7957 20.6523 19.7762 20.6913 19.7372 20.7303C19.5032 21.0228 19.3081 21.3543 19.1521 21.7639C19.1521 21.7639 19.5422 22.0369 20.1467 22.2709C20.1857 22.2904 20.2052 22.2904 20.2442 22.3099C20.5172 22.4074 20.8488 22.5049 21.1998 22.5634C21.3948 22.5829 21.5898 22.6024 21.8044 22.6024C21.8824 22.6024 21.9799 22.6024 22.0579 22.5829C22.0969 22.5829 22.1359 22.5829 22.1944 22.5634C22.2724 22.5439 22.3699 22.5439 22.4479 22.5244C22.5259 22.5049 22.6234 22.4854 22.7014 22.4659C22.9745 22.3879 23.228 22.2709 23.501 22.1149C24.2031 21.6858 24.9051 20.9448 25.4902 19.7357C25.4902 19.7357 24.4956 19.3847 23.2475 19.3456C23.1695 19.3456 23.072 19.3456 22.994 19.3456C22.7794 19.3456 22.5454 19.3652 22.3309 19.3847C22.1554 19.4042 21.9604 19.4432 21.7848 19.4822Z" fill="#166D44"/>
<path d="M31.5748 11.935C31.5163 11.896 30.1122 11.1745 28.279 10.8624C28.1425 10.8429 28.0255 10.8234 27.889 10.8039C27.538 10.7649 27.1869 10.7259 26.8554 10.7259C26.5629 10.7259 26.2704 10.7259 25.9973 10.7454C25.7828 10.7649 25.5488 10.7844 25.3343 10.8234C25.1783 10.8429 25.0418 10.8819 24.8858 10.921C24.7297 10.96 24.5932 10.999 24.4372 11.0575C24.2812 11.116 24.1447 11.155 24.0082 11.2135C23.9302 11.2525 23.8717 11.272 23.7937 11.311C23.6571 11.3695 23.5011 11.4475 23.3646 11.5255C23.2866 11.5645 23.2281 11.6035 23.1501 11.662C22.9356 11.7985 22.7406 11.9545 22.5456 12.1105C22.5066 12.1496 22.448 12.1886 22.409 12.2276C22.5846 11.74 22.7211 11.233 22.7991 10.7454C22.8576 10.4139 22.8771 10.0824 22.8771 9.75085C22.8771 9.61434 22.8771 9.47783 22.8576 9.34132C22.8576 9.26331 22.8381 9.20481 22.8381 9.1268C22.8186 8.97079 22.7991 8.83428 22.7796 8.69776C22.7601 8.54175 22.7211 8.40524 22.6821 8.26873C22.5456 7.82019 22.37 7.37165 22.1165 6.94262C21.3755 5.69451 20.1469 4.62193 18.4112 3.76385L17.5921 3.35432L17.2801 4.21239C17.2606 4.2709 16.7341 5.77252 16.6756 7.62518C16.6756 7.76169 16.6756 7.8787 16.6756 8.01521C16.6756 8.36624 16.6951 8.71727 16.7341 9.04879C16.7731 9.34132 16.8121 9.61434 16.8706 9.90687C16.9291 10.1214 16.9876 10.3359 17.0461 10.5504C17.0851 10.6869 17.1436 10.8429 17.2021 10.9795C17.2606 11.116 17.3191 11.272 17.3971 11.4085C17.4751 11.545 17.5336 11.6815 17.6116 11.818C17.6506 11.8765 17.6897 11.9545 17.7287 12.013C17.8067 12.1496 17.9042 12.2861 18.0017 12.4031C18.0602 12.4616 18.0992 12.5396 18.1577 12.5981C18.3137 12.7931 18.4892 12.9686 18.6842 13.1441C18.7427 13.2026 18.8207 13.2611 18.8793 13.3197C19.3668 13.7097 19.9323 14.0412 20.5564 14.2947L20.9464 14.4507L21.317 14.8018C21.3365 14.8213 21.8825 15.3478 22.7601 15.8549C22.7991 15.8744 22.8576 15.9134 22.8966 15.9329C23.3646 16.1864 23.8522 16.4009 24.3397 16.5374C24.6517 16.6349 24.9833 16.6934 25.3148 16.7519C25.4513 16.7714 25.5878 16.7909 25.7243 16.7909C25.8023 16.7909 25.8608 16.7909 25.9388 16.7909C25.9778 16.7909 26.0168 16.7909 26.0559 16.7909C26.1534 16.7909 26.2704 16.7909 26.3679 16.7909C26.5239 16.7909 26.6604 16.7714 26.8164 16.7519C27.2845 16.6934 27.7525 16.5569 28.201 16.3814C29.5466 15.8354 30.7752 14.7433 31.8478 13.1636L32.3549 12.4031L31.5748 11.935ZM25.9778 15.1528C25.9193 15.1528 25.8803 15.1528 25.8218 15.1528C25.7243 15.1528 25.6268 15.1333 25.5293 15.1333C25.2953 15.0943 25.0418 15.0553 24.8077 14.9773C24.4372 14.8603 24.0472 14.7043 23.6767 14.5092C23.6376 14.4897 23.5986 14.4702 23.5596 14.4507C23.3451 14.3337 23.1501 14.1972 22.9551 14.0607C23.1111 13.8462 23.2866 13.6512 23.4816 13.4757C23.5206 13.4367 23.5791 13.3977 23.6181 13.3587C23.7547 13.2416 23.9107 13.1441 24.0472 13.0466C24.1057 13.0076 24.1447 12.9881 24.2032 12.9491C24.3007 12.8906 24.3982 12.8321 24.5152 12.7931C24.5737 12.7736 24.6127 12.7541 24.6712 12.7151C24.7687 12.6761 24.8858 12.6371 24.9833 12.5981C25.0808 12.5591 25.1978 12.5396 25.3148 12.5006C25.4318 12.4811 25.5293 12.4421 25.6463 12.4226C25.8023 12.4031 25.9778 12.3641 26.1534 12.3641C26.3679 12.3446 26.6019 12.3446 26.8359 12.3446C27.1089 12.3446 27.4015 12.3836 27.694 12.4226C27.811 12.4421 27.9085 12.4616 28.0255 12.4811C28.7861 12.6176 29.4686 12.8321 29.9562 13.0271C29.2151 13.9242 28.435 14.5483 27.616 14.8798C27.2845 15.0163 26.9529 15.0943 26.6214 15.1528C26.5044 15.1723 26.4069 15.1723 26.3094 15.1918C26.1924 15.1528 26.0754 15.1528 25.9778 15.1528ZM20.8879 11.701C20.8684 11.74 20.8684 11.779 20.8489 11.818C20.7514 12.0325 20.6539 12.2666 20.5564 12.4811C20.3224 12.3446 20.1079 12.2081 19.9128 12.052C19.8738 12.013 19.8153 11.974 19.7763 11.935C19.6398 11.818 19.5228 11.6815 19.4058 11.545C19.3668 11.506 19.3278 11.4475 19.2888 11.4085C19.2108 11.311 19.1523 11.2135 19.0938 11.1355C19.0548 11.0965 19.0353 11.038 18.9963 10.999C18.9378 10.9014 18.8793 10.8039 18.8402 10.7064C18.7817 10.6089 18.7427 10.5114 18.7037 10.3944C18.6647 10.2969 18.6257 10.1799 18.5867 10.0824C18.5282 9.92637 18.4892 9.75085 18.4502 9.59484C18.4112 9.38032 18.3722 9.1463 18.3332 8.91228C18.2942 8.63926 18.2942 8.34674 18.2942 8.05421C18.2942 7.9372 18.2942 7.82019 18.2942 7.72268C18.3137 6.96212 18.4502 6.26006 18.5672 5.73352C19.5423 6.33807 20.2834 7.04013 20.7124 7.80069C20.8879 8.09321 21.0244 8.42474 21.1219 8.73677C21.1414 8.83428 21.1804 8.95129 21.1999 9.04879C21.2194 9.1463 21.2389 9.24381 21.2389 9.36082C21.2389 9.41933 21.2585 9.45833 21.2585 9.51683C21.2585 9.61434 21.278 9.71185 21.278 9.82886C21.278 10.0629 21.2585 10.3164 21.2194 10.5699C21.1414 10.9014 21.0439 11.2915 20.8879 11.701Z" fill="#051B10"/>
<path d="M23.4814 18.2145C23.3644 18.2145 23.2474 18.2145 23.1304 18.2145C22.8183 18.2145 22.5063 18.234 22.2333 18.273C21.9798 18.312 21.7263 18.351 21.4922 18.4095C21.2972 18.4485 21.1022 18.507 20.9267 18.5655C20.7902 18.6045 20.6732 18.6631 20.5562 18.7021C20.4196 18.7606 20.3026 18.8191 20.1856 18.8776C20.0686 18.9361 19.9321 19.0141 19.8346 19.0726C19.7761 19.1116 19.7176 19.1506 19.6591 19.1896C19.5421 19.2676 19.4251 19.3456 19.3081 19.4431C19.2496 19.4821 19.191 19.5406 19.1325 19.5796C18.957 19.7161 18.801 19.8722 18.6645 20.0477C18.645 20.0672 18.6255 20.0867 18.6255 20.1062C18.7035 19.6771 18.762 19.2676 18.762 18.8581C18.762 18.5655 18.7425 18.273 18.7035 17.9805C18.684 17.8635 18.6645 17.7465 18.6255 17.61C18.606 17.5515 18.5865 17.493 18.5865 17.4345C18.5475 17.3174 18.5085 17.1809 18.4695 17.0639C18.4305 16.9469 18.372 16.8104 18.3135 16.6934C18.138 16.3034 17.9234 15.9523 17.6504 15.6208C16.8314 14.6262 15.6027 13.8462 14.0036 13.3196L13.2236 13.0661L13.0675 13.8852C13.048 13.9437 12.7945 15.3088 12.97 16.9274C12.9895 17.0444 12.9895 17.1614 13.009 17.2784C13.048 17.5905 13.126 17.883 13.1845 18.1755C13.2431 18.429 13.3211 18.6631 13.4186 18.8971C13.4966 19.0726 13.5746 19.2676 13.6526 19.4431C13.7111 19.5601 13.7696 19.6771 13.8476 19.7941C13.9061 19.9112 13.9841 20.0282 14.0621 20.1452C14.1401 20.2622 14.2181 20.3792 14.3156 20.4767C14.3546 20.5352 14.4132 20.5742 14.4522 20.6327C14.5497 20.7302 14.6472 20.8472 14.7447 20.9447C14.8032 21.0033 14.8422 21.0423 14.9007 21.0813C15.0567 21.2178 15.2517 21.3543 15.4272 21.4908C15.4857 21.5298 15.5637 21.5688 15.6223 21.6078C16.0903 21.8808 16.6363 22.0953 17.2019 22.2514L17.5529 22.3294L17.9039 22.5829C17.9039 22.5829 18.4695 22.9924 19.3081 23.3044C19.3471 23.3239 19.3861 23.3434 19.4446 23.3629C19.8931 23.519 20.3416 23.636 20.7902 23.714C21.0437 23.753 21.3167 23.7725 21.5702 23.7725C21.6092 23.7725 21.6287 23.7725 21.6678 23.7725C21.7848 23.7725 21.9018 23.7725 22.0383 23.753C22.0968 23.753 22.1553 23.7335 22.2333 23.7335C22.3698 23.714 22.4868 23.6945 22.6038 23.675C22.7403 23.6555 22.8574 23.6165 22.9939 23.5775C23.4034 23.4605 23.7934 23.2849 24.1445 23.0704C25.2365 22.4269 26.1726 21.3153 26.9137 19.7941L27.2842 19.0531L26.5042 18.7801C26.3481 18.6826 25.061 18.2535 23.4814 18.2145ZM20.9852 22.2124C20.6537 22.1733 20.3026 22.0758 19.9516 21.9393C19.9126 21.9198 19.8931 21.9198 19.8541 21.9003C19.6591 21.8223 19.4836 21.7443 19.3081 21.6468C19.4251 21.4518 19.5421 21.2763 19.6786 21.1008C19.7176 21.0618 19.7566 21.0228 19.7761 20.9837C19.8736 20.8667 19.9906 20.7497 20.1076 20.6522C20.1466 20.6132 20.1856 20.5937 20.2246 20.5547C20.3026 20.4962 20.3806 20.4377 20.4587 20.3792C20.4977 20.3597 20.5367 20.3207 20.5757 20.3012C20.6537 20.2427 20.7512 20.2037 20.8292 20.1647C20.9072 20.1257 21.0047 20.0867 21.1022 20.0477C21.1997 20.0087 21.2972 19.9697 21.3752 19.9502C21.5117 19.9112 21.6678 19.8722 21.8043 19.8332C21.9993 19.7941 22.1943 19.7551 22.3893 19.7356C22.6233 19.7161 22.8769 19.6966 23.1304 19.6966C23.2279 19.6966 23.3254 19.6966 23.4229 19.6966C24.086 19.7161 24.6905 19.8137 25.139 19.9112C24.6125 20.7692 24.0274 21.3933 23.3644 21.7833C23.1109 21.9393 22.8183 22.0563 22.5453 22.1343C22.4478 22.1538 22.3698 22.1733 22.2723 22.1929C22.1943 22.2124 22.0968 22.2319 21.9993 22.2319C21.9603 22.2319 21.9018 22.2514 21.8628 22.2514C21.7653 22.2514 21.6873 22.2709 21.5897 22.2709C21.4142 22.2709 21.1997 22.2514 20.9852 22.2124ZM17.2604 18.8386C17.2604 19.1896 17.2214 19.5406 17.1434 19.9112C17.1434 19.9502 17.1239 19.9697 17.1239 20.0087C17.0849 20.2037 17.0264 20.3987 16.9484 20.5937C16.7338 20.5157 16.5388 20.4182 16.3633 20.3012C16.3243 20.2817 16.2658 20.2427 16.2268 20.2232C16.0903 20.1452 15.9733 20.0477 15.8563 19.9307C15.8173 19.8917 15.7783 19.8722 15.7393 19.8332C15.6613 19.7746 15.6027 19.6966 15.5247 19.6186C15.4857 19.5796 15.4662 19.5406 15.4272 19.5016C15.3687 19.4236 15.3102 19.3456 15.2517 19.2676C15.1932 19.1896 15.1347 19.1116 15.0957 19.0141C15.0372 18.9361 14.9982 18.8386 14.9592 18.7606C14.9007 18.6241 14.8422 18.4875 14.7837 18.351C14.7057 18.1755 14.6472 17.9805 14.6082 17.7855C14.5497 17.5515 14.4912 17.3174 14.4522 17.0639C14.4327 16.9664 14.4327 16.8689 14.4132 16.7714C14.3351 16.1278 14.3546 15.5038 14.3936 15.0553C15.3102 15.4453 16.0123 15.9523 16.4803 16.5569C16.6753 16.7909 16.8314 17.0444 16.9484 17.3174C16.9874 17.3955 17.0264 17.493 17.0459 17.571C17.0849 17.649 17.1044 17.7465 17.1239 17.8245C17.1434 17.8635 17.1434 17.9025 17.1629 17.961C17.1824 18.039 17.2019 18.1365 17.2214 18.2145C17.2604 18.4095 17.2604 18.6241 17.2604 18.8386Z" fill="#051B10"/>
<path d="M25.0029 10.1798L25.6465 10.1603C25.6855 10.1603 26.4655 10.1213 27.4991 9.80932C27.5576 9.78981 27.5966 9.77031 27.6551 9.75081C28.2012 9.5753 28.7082 9.36078 29.1568 9.08776C29.4688 8.91224 29.7418 8.71723 30.0148 8.50271C30.1318 8.4052 30.2294 8.30769 30.3464 8.21018C30.4049 8.15168 30.4634 8.11268 30.5024 8.05417C30.6194 7.93716 30.7169 7.83965 30.8144 7.72264C30.9119 7.60563 31.0094 7.46912 31.1069 7.35211C31.3995 6.94258 31.6335 6.49404 31.8285 6.026C32.3745 4.60238 32.433 2.88624 32.0235 0.916576L31.8285 0L30.9119 0.312026C30.8534 0.331528 29.2738 0.877573 27.7136 2.02817C27.5966 2.10618 27.4991 2.18418 27.3821 2.28169C27.0896 2.51571 26.8166 2.74973 26.5826 3.00325C26.368 3.21777 26.1925 3.43229 25.9975 3.6468L25.978 3.68581C25.822 3.86132 25.6855 4.05634 25.5685 4.25135C25.471 4.38787 25.393 4.52438 25.3149 4.66089C25.2369 4.7974 25.1589 4.95341 25.1004 5.08992C25.0224 5.24594 24.9639 5.38245 24.9054 5.53846C24.8859 5.61647 24.8469 5.69447 24.8274 5.77248C24.7689 5.92849 24.7299 6.10401 24.6909 6.26002C24.6714 6.33803 24.6519 6.43554 24.6324 6.51354C24.5739 6.76706 24.5544 7.04009 24.5349 7.29361C24.5349 7.39112 24.5349 7.46912 24.5349 7.56663C24.5349 8.22968 24.6324 8.89274 24.8274 9.5753L25.0029 10.1798ZM26.212 7.56663C26.212 7.50812 26.212 7.43012 26.212 7.37161C26.2315 7.1766 26.251 7.00108 26.29 6.80607C26.3095 6.74756 26.3095 6.68906 26.329 6.63055C26.3485 6.51354 26.3875 6.39653 26.4265 6.27952C26.446 6.22102 26.4655 6.16251 26.485 6.10401C26.524 5.987 26.5826 5.88949 26.6216 5.77248C26.6801 5.67497 26.7191 5.55796 26.7776 5.46045C26.8361 5.36295 26.8946 5.24594 26.9726 5.14843C27.0701 5.01192 27.1676 4.8559 27.2846 4.71939C27.4406 4.54388 27.5966 4.34886 27.7722 4.19285C27.9672 3.99783 28.2012 3.78331 28.4352 3.5883C28.5327 3.51029 28.6302 3.45179 28.7082 3.37378C29.3713 2.88624 30.0343 2.53521 30.5219 2.28169C30.6779 3.49079 30.5804 4.54388 30.2489 5.42145C30.1123 5.77248 29.9368 6.08451 29.7418 6.37703C29.6833 6.47454 29.6053 6.55255 29.5273 6.65005C29.4688 6.72806 29.3908 6.80607 29.3128 6.88407C29.2738 6.92308 29.2348 6.96208 29.1958 7.00108C29.1178 7.07909 29.0398 7.13759 28.9618 7.2156C28.7667 7.37161 28.5522 7.52763 28.3182 7.64464C27.9672 7.85915 27.5576 8.03467 27.1286 8.17118C27.0896 8.19068 27.0506 8.19068 27.0116 8.21018C26.7581 8.28819 26.524 8.34669 26.2705 8.3857C26.2315 8.09317 26.1925 7.82015 26.212 7.56663Z" fill="#051B10"/>
<path d="M27.0306 4.42687C26.9331 4.56338 26.8356 4.68039 26.7381 4.8364C26.6796 4.93391 26.6211 5.03142 26.5626 5.12893C26.5041 5.22643 26.4651 5.32394 26.4066 5.42145C26.3676 5.51896 26.3091 5.63597 26.2701 5.73348C26.2506 5.79198 26.2311 5.85049 26.2116 5.88949C26.1726 6.0065 26.1531 6.10401 26.114 6.22102C26.0945 6.27952 26.0945 6.33803 26.075 6.39653C26.036 6.57205 26.0165 6.74756 26.0165 6.94258C26.0165 7.00108 26.0165 7.05959 26.0165 7.13759C26.0165 7.58613 26.075 8.05417 26.2311 8.56121C26.2311 8.56121 26.7966 8.54171 27.5377 8.30769C27.5767 8.28819 27.6157 8.28819 27.6547 8.26869C28.0057 8.15168 28.3762 7.99566 28.7273 7.80065C28.9223 7.68364 29.1368 7.54713 29.3318 7.39111C29.4098 7.33261 29.4878 7.2546 29.5658 7.1961C29.6048 7.15709 29.6438 7.11809 29.6828 7.07909C29.7609 7.00108 29.8194 6.92308 29.8974 6.84507C29.9754 6.76706 30.0339 6.66955 30.0924 6.59155C30.2874 6.31852 30.4434 6.026 30.5799 5.67497C30.931 4.7584 31.048 3.54929 30.6969 1.95016C30.6969 1.95016 29.4878 2.3597 28.3177 3.23727C28.2397 3.29577 28.1617 3.35428 28.0642 3.43228C27.8692 3.5883 27.6547 3.76381 27.4792 3.95883C27.3232 4.09534 27.1671 4.27085 27.0306 4.42687Z" fill="#166D44"/>
<path d="M16.9291 35.1029C16.9291 35.0834 16.9291 35.0639 16.9291 35.0639C16.8121 34.4789 13.8088 20.8667 5.11109 16.7519C4.91607 16.6544 4.72106 16.6544 4.52604 16.7324C4.33102 16.8104 4.17501 16.9469 4.097 17.1224C3.92149 17.5124 4.0775 17.961 4.46753 18.156C8.56288 20.0867 11.3126 24.572 12.8727 27.9653C14.6474 31.8071 15.3494 35.0834 15.4079 35.3369V35.3759C15.4664 35.7465 15.798 36 16.149 36C16.188 36 16.227 36 16.2855 35.9805C16.305 35.9805 16.3245 35.9805 16.344 35.961C16.7341 35.9025 17.0071 35.4929 16.9291 35.1029Z" fill="#051B10"/>
</svg>
