<svg width="36" height="36" fill="none" xmlns="http://www.w3.org/2000/svg"><path d="M26.465 8.347c-.234-.37-.74-.468-1.111-.234l-.02.02c-4.192 3.236-7.157 8.677-8.814 16.127-1.19 5.382-1.248 9.985-1.248 10.843 0 .429.37.8.8.8a.78.78 0 00.565-.234.781.781 0 00.234-.566c0-.195.02-4.759 1.19-10.2 1.072-4.992 3.373-11.74 8.248-15.503l.02-.02a.806.806 0 00.136-1.033z" fill="#051B10"/><path d="M18.06 9.575c.04.156.078.312.117.449.04.097.078.195.117.292.04.098.078.195.137.293.039.097.097.195.156.292.02.04.058.098.078.137.058.097.117.175.195.273a.35.35 0 01.097.136c.117.137.234.254.37.371.04.039.098.078.137.117.332.273.722.507 1.17.682 0 0 .332-.429.605-1.13.02-.04.02-.079.04-.098.116-.312.233-.683.292-1.092.039-.215.058-.449.058-.683 0-.097 0-.195-.02-.292 0-.04 0-.098-.019-.156-.02-.098-.02-.195-.039-.293-.02-.097-.039-.195-.078-.292a4.038 4.038 0 00-.39-.917c-.468-.8-1.306-1.599-2.71-2.301 0 0-.41 1.131-.45 2.535v.293c0 .253.02.507.04.76.02.215.058.41.097.624zm8.113 2.399l-.468.059c-.098.02-.215.039-.313.058-.097.02-.214.059-.311.098a5.398 5.398 0 01-.313.117c-.058.02-.097.039-.155.058-.098.04-.195.098-.293.156-.04.02-.098.059-.137.078-.136.098-.273.195-.41.312-.038.04-.097.078-.136.117A4.764 4.764 0 0022.8 14.1s.39.37 1.033.74c.04.02.059.04.098.06.292.155.643.311 1.034.428.214.059.448.117.682.137.098.02.195.02.293.02h.447c.098 0 .195-.02.312-.04a3.69 3.69 0 00.956-.253c.858-.351 1.774-1.073 2.652-2.36 0 0-1.073-.565-2.457-.8a1.505 1.505 0 00-.293-.038 4.994 4.994 0 00-.76-.059c-.215.02-.43.02-.624.04zm-11.74 6.456c.058.136.097.253.175.37.04.078.078.156.137.253.039.078.097.156.156.234l.175.234c.04.04.059.078.098.117.058.078.136.137.195.215.039.039.078.058.117.097.117.098.234.195.37.273.04.02.078.059.137.078.312.195.682.332 1.111.449 0 0 .215-.43.371-1.053 0-.04.02-.059.02-.098.058-.292.116-.624.116-.975 0-.195-.019-.41-.038-.604-.02-.078-.02-.176-.04-.254a.277.277 0 00-.039-.117c-.019-.078-.038-.175-.078-.254-.038-.078-.058-.175-.097-.253a3.269 3.269 0 00-.449-.741c-.507-.644-1.345-1.229-2.632-1.638 0 0-.215 1.033-.078 2.262 0 .078.02.176.039.254.039.214.078.429.136.643-.02.156.04.332.098.507zm7.352 1.052c-.136.04-.273.059-.39.117-.098.04-.175.059-.253.098-.078.039-.176.078-.254.117-.078.039-.176.097-.254.136-.038.02-.078.059-.117.078l-.234.176c-.039.039-.078.058-.117.097-.117.098-.214.195-.331.312-.04.04-.059.078-.098.117a3.766 3.766 0 00-.585 1.034s.39.273.995.507c.039.02.058.02.097.039.273.098.605.195.956.254.195.019.39.038.605.038.078 0 .175 0 .253-.019.04 0 .078 0 .137-.02.078-.019.175-.019.253-.038.078-.02.176-.04.254-.059.273-.078.526-.195.8-.351.701-.43 1.403-1.17 1.988-2.38 0 0-.994-.35-2.242-.39h-.254c-.214 0-.448.02-.663.04-.175.02-.37.058-.546.097z" fill="#166D44"/><path d="M31.575 11.935c-.058-.039-1.463-.76-3.296-1.072-.136-.02-.253-.04-.39-.059a9.554 9.554 0 00-1.033-.078c-.293 0-.585 0-.858.02-.215.019-.449.038-.664.077-.155.02-.292.059-.448.098a3.932 3.932 0 00-.449.136c-.156.059-.292.098-.429.156-.078.04-.136.059-.214.098a4.412 4.412 0 00-.43.214 1.32 1.32 0 00-.214.137c-.214.137-.41.293-.604.449-.04.039-.098.078-.137.117a8.32 8.32 0 00.39-1.482 5.7 5.7 0 00.078-.995c0-.137 0-.273-.02-.41 0-.078-.019-.136-.019-.214-.02-.156-.039-.293-.058-.43a2.826 2.826 0 00-.098-.428 6.026 6.026 0 00-.565-1.326c-.741-1.248-1.97-2.321-3.706-3.18l-.819-.409-.312.858c-.02.059-.546 1.56-.604 3.413v.39c0 .351.02.702.058 1.034.04.292.078.565.137.858l.175.643c.04.137.098.293.156.43.059.136.117.292.195.428.078.137.137.274.215.41.039.059.078.137.117.195.078.137.175.273.273.39.058.059.097.137.156.195.156.195.331.37.526.546.059.059.137.117.195.176.488.39 1.054.721 1.678.975l.39.156.37.35c.02.02.566.547 1.443 1.054.04.02.098.058.137.078.468.253.955.468 1.443.605.312.097.643.155.975.214.136.02.273.039.41.039h.643c.156 0 .293-.02.449-.039a5.82 5.82 0 001.384-.37c1.346-.547 2.575-1.639 3.647-3.218l.507-.76-.78-.469zm-5.597 3.218h-.156c-.098 0-.195-.02-.293-.02-.233-.039-.487-.078-.721-.156a6.938 6.938 0 01-1.131-.468l-.117-.058c-.215-.117-.41-.254-.605-.39.156-.215.332-.41.527-.585.039-.04.097-.078.136-.117.137-.117.293-.215.43-.312.058-.04.097-.059.155-.098.098-.058.195-.117.312-.156a.581.581 0 00.156-.078c.098-.039.215-.078.313-.117.097-.039.214-.058.331-.097.117-.02.214-.059.331-.078.156-.02.332-.059.508-.059.214-.02.448-.02.682-.02.273 0 .566.04.858.079.117.02.215.039.332.058.76.137 1.443.351 1.93.546-.74.897-1.52 1.521-2.34 1.853a4.734 4.734 0 01-.994.273c-.117.02-.215.02-.312.039-.117-.04-.234-.04-.332-.04zm-5.09-3.452c-.02.04-.02.078-.039.117-.097.215-.195.449-.292.663a5.271 5.271 0 01-.644-.429c-.039-.039-.098-.078-.137-.117a3.502 3.502 0 01-.37-.39c-.039-.039-.078-.098-.117-.136-.078-.098-.137-.196-.195-.274-.039-.038-.059-.097-.098-.136a2.131 2.131 0 01-.155-.293 1.51 1.51 0 01-.137-.311c-.04-.098-.078-.215-.117-.313-.059-.156-.098-.331-.137-.487a48.502 48.502 0 01-.117-.683c-.039-.273-.039-.565-.039-.858v-.331c.02-.76.156-1.463.273-1.99.976.605 1.717 1.307 2.146 2.068.175.292.312.624.41.936.019.097.058.214.077.312.02.097.04.195.04.312 0 .058.019.097.019.156 0 .097.02.195.02.312 0 .234-.02.487-.06.741a8.735 8.735 0 01-.33 1.131zm2.593 6.514h-.35c-.313 0-.625.019-.898.058-.253.039-.507.078-.741.137-.195.038-.39.097-.566.155-.136.04-.253.098-.37.137a6.706 6.706 0 00-.722.37c-.058.04-.117.079-.175.117-.117.079-.234.157-.351.254-.059.04-.117.098-.176.137a2.662 2.662 0 00-.468.468c-.02.02-.039.039-.039.058.078-.429.137-.838.137-1.248 0-.293-.02-.585-.059-.878a3.168 3.168 0 00-.078-.37.57.57 0 01-.039-.176c-.039-.117-.078-.253-.117-.37a3.008 3.008 0 00-.156-.37 4.682 4.682 0 00-.663-1.073c-.819-.995-2.047-1.775-3.647-2.301l-.78-.254-.156.82c-.02.058-.273 1.423-.097 3.041.02.117.02.234.039.351.039.312.117.605.175.898.059.253.137.487.234.721.078.176.156.37.234.546.059.117.117.234.195.351.059.117.137.234.215.351.078.117.156.234.253.332.04.058.098.097.137.156.097.097.195.214.292.312.059.058.098.097.156.136.156.137.351.273.527.41.059.039.136.078.195.117a6.706 6.706 0 001.58.643l.35.078.352.254s.565.41 1.404.721a.86.86 0 00.136.059c.449.156.897.273 1.346.35.253.04.527.06.78.06h.098c.117 0 .233 0 .37-.02.058 0 .117-.02.195-.02.137-.02.254-.039.37-.058.137-.02.254-.059.39-.098.41-.117.8-.292 1.151-.507 1.092-.643 2.028-1.755 2.77-3.276l.37-.741-.78-.273c-.156-.098-1.443-.527-3.023-.566zm-2.496 3.997a4.279 4.279 0 01-1.034-.273c-.039-.02-.058-.02-.097-.039a4.668 4.668 0 01-.546-.253 5.5 5.5 0 01.37-.546.517.517 0 00.098-.117c.097-.117.214-.234.331-.332.04-.039.078-.058.117-.097l.234-.176c.04-.02.078-.058.117-.078.078-.058.176-.097.254-.136.078-.04.175-.078.273-.117.098-.04.195-.078.273-.098.137-.039.293-.078.429-.117.195-.039.39-.078.585-.097.234-.02.488-.04.741-.04h.293c.663.02 1.267.118 1.716.215-.527.858-1.112 1.482-1.775 1.872a3.349 3.349 0 01-.819.351c-.097.02-.175.04-.273.059a1.15 1.15 0 01-.273.039c-.039 0-.098.02-.136.02-.098 0-.176.019-.273.019-.176 0-.39-.02-.605-.059zM17.26 18.84c0 .35-.039.702-.117 1.072 0 .04-.02.059-.02.098a3.25 3.25 0 01-.175.585 2.73 2.73 0 01-.585-.293c-.039-.02-.098-.058-.136-.078a1.747 1.747 0 01-.371-.292c-.039-.04-.078-.059-.117-.098-.078-.058-.137-.136-.215-.214-.038-.04-.058-.078-.097-.117l-.175-.234a1.11 1.11 0 01-.157-.254c-.058-.078-.097-.175-.136-.253l-.176-.41a2.725 2.725 0 01-.175-.566 7.838 7.838 0 01-.156-.721c-.02-.098-.02-.195-.04-.293a8.513 8.513 0 01-.019-1.716c.917.39 1.619.897 2.087 1.502.195.234.351.487.468.76.04.078.078.176.098.254.039.078.058.175.078.253.02.04.02.078.039.137.02.078.039.176.058.254.04.195.04.409.04.623z" fill="#051B10"/><path d="M25.002 10.18l.644-.02c.039 0 .819-.039 1.852-.35.059-.02.098-.04.156-.06a7.006 7.006 0 001.502-.662c.312-.176.585-.37.858-.585.117-.098.215-.195.332-.293.058-.058.117-.097.156-.156.117-.117.214-.214.312-.331.097-.117.195-.254.292-.37.293-.41.527-.859.722-1.327.546-1.424.604-3.14.195-5.11L31.828 0l-.917.312c-.058.02-1.638.566-3.198 1.716a3.75 3.75 0 00-.332.254 7.21 7.21 0 00-.8.721c-.214.215-.39.43-.584.644l-.02.039a3.83 3.83 0 00-.41.565 4.787 4.787 0 00-.253.41 4.4 4.4 0 00-.214.429 4.463 4.463 0 00-.195.448c-.02.078-.059.156-.078.234-.059.156-.098.332-.137.488-.02.078-.039.176-.058.254-.059.253-.078.526-.098.78v.273c0 .663.098 1.326.293 2.008l.175.605zm1.21-2.613v-.195a5.53 5.53 0 01.077-.566c.02-.058.02-.117.04-.175.019-.117.058-.234.097-.351l.058-.176c.04-.117.098-.215.137-.332.058-.097.097-.214.156-.312.058-.097.117-.214.195-.312.097-.136.195-.292.312-.429.156-.175.312-.37.488-.526.195-.195.429-.41.663-.605.097-.078.195-.136.273-.214.663-.488 1.326-.839 1.813-1.092.156 1.209.059 2.262-.273 3.14a4.95 4.95 0 01-.507.955c-.058.098-.136.176-.214.273a2.336 2.336 0 01-.215.234l-.117.117c-.078.078-.156.137-.234.215a3.73 3.73 0 01-.643.429c-.352.214-.761.39-1.19.526-.04.02-.078.02-.117.04a5.101 5.101 0 01-.741.175c-.04-.293-.078-.566-.059-.82z" fill="#051B10"/><path d="M27.03 4.427c-.097.136-.194.253-.292.41l-.175.292c-.059.097-.098.195-.156.292-.04.098-.098.215-.137.313-.02.058-.039.117-.058.156-.04.117-.059.214-.098.331-.02.059-.02.117-.039.176a2.467 2.467 0 00-.058.546v.195c0 .448.058.916.214 1.423 0 0 .566-.02 1.307-.253.039-.02.078-.02.117-.04a6.392 6.392 0 001.072-.467c.195-.117.41-.254.605-.41.078-.058.156-.136.234-.195l.117-.117c.078-.078.136-.156.214-.234.078-.078.137-.175.195-.253.196-.273.352-.566.488-.917.351-.917.468-2.126.117-3.725 0 0-1.21.41-2.38 1.287-.077.059-.155.117-.253.195a4.92 4.92 0 00-.585.527 5.086 5.086 0 00-.448.468z" fill="#166D44"/><path d="M16.93 35.103v-.04c-.118-.584-3.121-14.196-11.819-18.311a.684.684 0 00-.585-.02.77.77 0 00-.429.39.784.784 0 00.37 1.034c4.096 1.93 6.846 6.416 8.406 9.81 1.774 3.841 2.476 7.117 2.535 7.371v.039c.058.37.39.624.741.624.039 0 .078 0 .136-.02.02 0 .04 0 .059-.019.39-.058.663-.468.585-.858z" fill="#051B10"/></svg>