<svg width="36" height="36" fill="none" xmlns="http://www.w3.org/2000/svg"><path d="M17.173 5.746h1.73c.09.015.164.03.254.03 1.76.06 3.506.194 5.236.492 2.492.418 4.924 1.015 7.191 2.149 1.06.522 2.044 1.148 2.82 2.073.433.522.746 1.09.82 1.776.12 1.044-.372 1.85-1.058 2.55-.985 1.015-2.179 1.702-3.477 2.239-3.073 1.283-6.296 1.88-9.593 2.133-3.043.239-6.087.15-9.1-.343-2.298-.358-4.536-.865-6.684-1.775-1.298-.552-2.507-1.239-3.491-2.253-1.403-1.432-1.433-3.044-.075-4.506 1.03-1.104 2.328-1.805 3.685-2.357 3.133-1.283 6.415-1.865 9.787-2.089.642-.044 1.298-.074 1.955-.119zm.805 9.25c1.611 0 3.208-.15 4.76-.642.566-.179 1.118-.417 1.566-.835.627-.582.642-1.358.015-1.954-.567-.553-1.298-.821-2.044-1-2.566-.642-5.162-.642-7.743-.194-.94.164-1.85.418-2.656 1-.865.626-.91 1.64-.044 2.267.417.299.91.537 1.402.716 1.537.508 3.133.642 4.744.642z" fill="#166D44"/><path d="M17.978 14.996c-1.611 0-3.193-.134-4.73-.642a4.988 4.988 0 01-1.402-.716c-.865-.626-.835-1.64.045-2.268.79-.566 1.716-.835 2.656-1 2.58-.462 5.177-.447 7.728.195.746.194 1.477.447 2.044 1 .611.596.611 1.357-.015 1.954-.448.418-1 .656-1.567.835-1.551.493-3.148.642-4.759.642zm5.61-2.462c-.164-.12-.269-.239-.403-.298-.418-.18-.835-.373-1.268-.478-2.402-.596-4.82-.611-7.25-.134-.657.134-1.299.388-1.925.657-.374.164-.359.283-.015.507.626.388 1.357.552 2.073.686 1.865.343 3.745.388 5.64.134.94-.134 1.88-.298 2.73-.76.134-.075.254-.194.418-.314z" fill="#fff"/><path d="M22.886 19.218c-.477.76-.94 1.492-1.432 2.268.776.581 1.552 1.148 2.342 1.73-.596.582-1.193 1.15-1.805 1.73a241.84 241.84 0 011.97 1.91c-.582.553-1.075 1.06-1.597 1.537-.164.15-.164.269-.075.463.284.552.537 1.134.791 1.7.045.09.075.194.134.299-1.82.239-3.61.343-5.415.328-2.387-.015-4.774-.194-7.117-.656-2.55-.493-5.042-1.194-7.28-2.552-.895-.537-1.716-1.193-2.253-2.118a3.061 3.061 0 01-.403-1.492v-9.906c.298.283.552.537.836.776 1.327 1.104 2.85 1.85 4.475 2.416 1.76.612 3.566 1.015 5.401 1.328 2.954.508 5.938.612 8.922.448.82-.045 1.64-.134 2.506-.209z" fill="#166D44"/><path d="M35.225 14.489v.402c0 2.388-.045 4.775.015 7.162.03 1.298-.478 2.282-1.403 3.118-1.104 1-2.402 1.64-3.774 2.178-1.97.776-4.029 1.238-6.117 1.552-.075.015-1.164.149-1.313.149-.03-.701 1.178-1.462 1.88-2.119-.702-.671-1.313-1.283-1.955-1.91.672-.64 1.313-1.253 2-1.91-.91-.67-1.761-1.297-2.626-1.939.283-.447.596-.85.82-1.312.328-.702 2.059-.94 2.79-1.075 2.462-.432 4.849-1.119 7.057-2.327.895-.492 1.716-1.06 2.432-1.79.044-.06.104-.105.194-.18z" fill="#166D44"/><path d="M22.44 9.849c-2.552-.642-5.178-.701-8.042-.194-.866.15-1.97.418-2.954 1.119-.627.447-.985 1.089-.985 1.76 0 .672.328 1.268.94 1.716a6.168 6.168 0 001.596.806c1.403.462 2.97.686 4.909.686h.149c1.895 0 3.446-.209 4.893-.672.552-.178 1.254-.447 1.85-1 .463-.432.701-.954.716-1.52 0-.553-.238-1.075-.686-1.523-.73-.7-1.656-1-2.387-1.178zm-8.952 3.79a4.383 4.383 0 01-1.209-.612c-.209-.15-.328-.329-.328-.493 0-.194.134-.388.358-.552.746-.537 1.641-.746 2.342-.865 2.656-.463 5.073-.403 7.415.179.582.15 1.238.358 1.716.82.104.105.224.254.224.433 0 .18-.135.328-.24.433-.297.268-.685.477-1.282.671-1.343.418-2.775.612-4.536.597-1.79 0-3.207-.194-4.46-.612z" fill="#051B10"/><path d="M35.985 22.038c-.045-1.671-.03-3.372-.03-5.028 0-.701.015-1.403.015-2.119v-1.954l-.03.015c.03-.239.03-.492 0-.761-.09-.776-.402-1.492-.984-2.178-.746-.88-1.686-1.567-3.059-2.253-2.044-1.014-4.326-1.7-7.4-2.223-1.626-.268-3.371-.433-5.326-.492-.015 0-.045 0-.074-.015-.03 0-.075-.015-.105-.015L17.157 5l-.627.03c-.447.03-.91.045-1.357.074-3.864.269-7.146.97-10.026 2.149-1.208.492-2.745 1.238-3.953 2.551-.85.925-1.254 1.94-1.18 2.954H0V24.38c0 .642.179 1.268.507 1.865.537.91 1.298 1.641 2.507 2.372 2.536 1.552 5.356 2.223 7.534 2.656 2.268.447 4.655.656 7.266.671h.164c1.91 0 3.67-.104 5.34-.343l.97-.134-.417-1-.09-.224c-.06-.149-.134-.283-.194-.432-.015-.03-.03-.075-.044-.105.283-.03.522-.06.537-.06 2.461-.373 4.446-.88 6.266-1.596 1.178-.462 2.7-1.149 4.013-2.312 1.134-1.045 1.67-2.253 1.626-3.7zm-13.86 8.19c-1.343.135-2.76.21-4.311.21-2.522-.016-4.805-.225-6.983-.642-2.044-.403-4.7-1.045-7.042-2.462-.97-.597-1.596-1.164-1.984-1.85a2.178 2.178 0 01-.313-1.104v-8.25c1.179.895 2.596 1.626 4.312 2.223 1.61.567 3.356 1 5.52 1.372 2.805.478 5.788.627 9.086.463.357-.015.7-.045 1.044-.075l-1 1.582 2.193 1.626-1.715 1.656 1.969 1.91c-.358.343-.686.67-1.03.984-.402.373-.492.836-.238 1.343.104.194.194.403.283.597.075.134.15.283.21.417zM33.613 14.31c-.79.82-1.805 1.477-3.223 2.058-2.685 1.12-5.758 1.806-9.369 2.09a38.46 38.46 0 01-8.937-.33c-2.61-.417-4.684-.969-6.49-1.745-1.417-.596-2.446-1.268-3.252-2.088-1.104-1.134-1.134-2.313-.06-3.476C3.298 9.713 4.656 9.072 5.715 8.64c2.73-1.119 5.863-1.79 9.548-2.029.433-.03.866-.06 1.313-.074l.627-.03h1.67c.074.015.164.03.283.03 1.895.06 3.58.209 5.132.477 2.925.492 5.073 1.134 6.983 2.089 1.178.597 1.984 1.178 2.58 1.88.389.447.597.91.642 1.387.045.642-.209 1.253-.88 1.94zm-9.235 13.725c.209-.179.448-.373.642-.567l.566-.537-1.954-1.91 2.074-1.984-2.76-2.058c.164-.254.343-.523.477-.821.015-.03.194-.299 2.044-.612l.209-.03c2.91-.522 5.237-1.283 7.295-2.416.567-.314 1.06-.627 1.522-.97v.865c-.015 1.656-.015 3.372.03 5.073.03 1-.343 1.805-1.164 2.536-.88.79-1.984 1.417-3.55 2.044-1.597.626-3.357 1.089-5.49 1.432a.2.2 0 01.059-.045z" fill="#051B10"/></svg>