<svg width="37" height="36" fill="none" xmlns="http://www.w3.org/2000/svg"><g clip-path="url(#clip0)"><path d="M17.832 0h.361c.29.193.602.386.843.602 1.085 1.037 2.025 2.193 2.868 3.422.072.096.145.217.217.313.144-.096.24-.168.361-.24a23.04 23.04 0 014.193-2.17c.699-.264 1.229-.072 1.494.627a90.25 90.25 0 011.229 3.59c.145.434.217.868.313 1.302.097-.024.193-.024.265-.048 1.59-.314 3.205-.434 4.844-.434.602 0 1.18.385 1.18 1.229a23.368 23.368 0 01-.554 5.494c-.602 2.723-1.687 5.229-3.542 7.35-.048.047-.072.12-.12.168.072.048.12.072.168.096 1.326.771 2.506 1.711 3.615 2.795.554.53.554 1.23 0 1.784-1.374 1.349-2.868 2.481-4.627 3.325-2.217 1.036-4.482 1.422-6.892.77-.433-.12-.867-.264-1.3-.385-.025.049-.025.073-.049.12-.82 2.266-2.169 4.17-3.855 5.88-.482.506-1.302.482-1.76.024-1.59-1.614-2.89-3.397-3.71-5.518-.072-.168-.12-.337-.193-.53a.722.722 0 00-.24.097c-2.266.843-4.531.867-6.796.048-2.096-.771-3.928-2-5.494-3.566-.265-.265-.458-.603-.699-.916v-.434c.169-.24.313-.53.53-.747a16.516 16.516 0 013.494-2.699c.073-.048.145-.096.193-.12-.361-.458-.723-.892-1.06-1.35C1.374 17.326.53 14.434.169 11.373c-.072-.53-.12-1.06-.169-1.59V7.928c.265-.7.53-.916 1.253-.892 1.133.024 2.241.097 3.374.193.554.048 1.108.169 1.663.24.024-.096.048-.192.048-.264.337-1.615.819-3.18 1.494-4.699.289-.578.819-.82 1.445-.554.627.265 1.278.506 1.88.843.94.482 1.831 1.012 2.771 1.542.048-.048.096-.144.169-.24A22.007 22.007 0 0117.06.553c.216-.217.506-.361.77-.554zm.24 2.554c-.096.073-.12.073-.144.097-1.59 1.71-2.916 3.614-3.855 5.783-1.23 2.867-1.35 5.735-.241 8.674.795 2.12 2.024 4 3.494 5.735.216.265.433.482.674.747 1.615-1.735 2.964-3.614 3.88-5.759 1.036-2.385 1.373-4.819.699-7.373a16.135 16.135 0 00-2.458-5.205c-.627-.94-1.35-1.807-2.048-2.699zM2.122 9.133v.216c.12 2.386.53 4.723 1.446 6.94 1.06 2.53 2.747 4.458 5.204 5.735 1.663.868 3.446 1.398 5.277 1.687.458.072.892.12 1.422.193-.072-.097-.072-.12-.096-.145-.699-.988-1.446-1.928-2.048-2.94C11.64 18 10.7 15.012 11.062 11.663c0-.073-.049-.193-.12-.217-.652-.338-1.278-.675-1.953-.964C7.398 9.807 5.711 9.446 4 9.253c-.626-.048-1.229-.072-1.88-.12zM20.579 23.88c.168 0 .289-.025.41-.025a21.167 21.167 0 004.072-.891c3.421-1.133 5.951-3.253 7.373-6.603.795-1.855 1.205-3.783 1.422-5.783.048-.457.072-.94.096-1.421h-.289c-.988.096-1.976.168-2.94.337-1.927.313-3.735.892-5.445 1.88-.217.12-.266.24-.241.481.144 1.277.072 2.53-.193 3.784-.53 2.53-1.663 4.77-3.157 6.867-.386.434-.747.892-1.108 1.373zm-5.253 2.144c-.603-.096-1.157-.145-1.687-.24-2.723-.435-5.277-1.302-7.542-2.94-.12-.097-.217-.097-.362-.025-.578.362-1.205.675-1.759 1.06-.506.338-.964.747-1.47 1.133.097.072.145.12.193.145.844.723 1.735 1.373 2.723 1.903 1.157.627 2.386 1.06 3.71 1.133 1.808.096 3.423-.482 4.94-1.374.434-.217.82-.506 1.254-.795zM20.723 26c.12.096.193.145.265.193.747.433 1.446.915 2.217 1.253 1.783.82 3.615 1.012 5.518.41 1.518-.483 2.844-1.302 4.097-2.266.216-.168.433-.361.674-.578a14.556 14.556 0 00-3.156-2.193c-.169-.096-.29-.072-.434.024a15.867 15.867 0 01-3.639 1.904c-1.783.699-3.614 1.06-5.542 1.253zm-2.699.627c-.843.626-1.735 1.253-2.626 1.879-.169.12-.217.193-.145.386.53 1.59 1.422 2.988 2.506 4.265.097.096.193.217.29.337.361-.434.698-.843 1.012-1.277.747-1.036 1.397-2.145 1.783-3.374.048-.12.048-.192-.073-.289-.94-.626-1.855-1.301-2.747-1.927zm5.23-20.53c.457 1.132.89 2.168 1.3 3.18a413.12 413.12 0 013.133-1.301 19.855 19.855 0 00-1.084-3.735c-1.157.626-2.265 1.253-3.35 1.855zm-11.76 3.18c.434-1.036.844-2.072 1.277-3.132-1.036-.7-2.144-1.35-3.349-1.856a23.572 23.572 0 00-1.06 3.687c1.084.434 2.12.867 3.132 1.301z" fill="#051B10"/><path d="M18.073 2.554c.699.892 1.421 1.76 2.072 2.675 1.133 1.59 1.976 3.301 2.458 5.205.675 2.554.313 4.988-.699 7.373-.94 2.145-2.289 4.024-3.88 5.76-.216-.242-.457-.483-.674-.748-1.47-1.735-2.675-3.59-3.494-5.735-1.108-2.915-.988-5.807.24-8.674.94-2.17 2.266-4.049 3.856-5.784.024 0 .049-.024.12-.072zM2.121 9.133c.65.048 1.253.096 1.88.144 1.71.193 3.397.554 4.988 1.23.674.288 1.3.626 1.951.963.073.024.12.144.12.217-.36 3.325.58 6.337 2.266 9.156.602 1.037 1.373 1.976 2.048 2.94a.45.45 0 01.096.145c-.506-.073-.963-.12-1.421-.193-1.856-.29-3.615-.82-5.277-1.687-2.434-1.277-4.145-3.205-5.205-5.735-.94-2.217-1.35-4.554-1.446-6.94v-.24zM20.58 23.88c.36-.506.722-.94 1.06-1.398 1.493-2.072 2.65-4.337 3.156-6.867.265-1.254.337-2.507.193-3.784-.024-.24.024-.361.24-.482 1.687-.963 3.519-1.566 5.447-1.88.963-.144 1.951-.216 2.94-.336h.288c-.024.482-.048.963-.096 1.421-.193 2-.627 3.928-1.422 5.783-1.421 3.35-3.952 5.494-7.373 6.603a21.571 21.571 0 01-4.073.891c-.072.049-.192.049-.36.049zm-5.255 2.144c-.457.29-.843.554-1.228.795-1.518.892-3.133 1.47-4.94 1.374-1.326-.073-2.554-.506-3.711-1.133-.988-.53-1.88-1.18-2.723-1.903-.048-.049-.096-.073-.193-.145.506-.41.964-.795 1.47-1.133.578-.385 1.18-.698 1.76-1.06.12-.072.216-.072.36.024 2.266 1.615 4.82 2.482 7.543 2.94.53.096 1.06.145 1.662.241zM20.723 26c1.927-.217 3.759-.554 5.518-1.229a15.869 15.869 0 003.638-1.904c.145-.096.265-.12.434-.024 1.157.579 2.193 1.326 3.157 2.193-.241.193-.458.386-.675.578-1.229.988-2.578 1.784-4.096 2.265-1.904.603-3.735.41-5.519-.41-.77-.36-1.494-.843-2.216-1.252a2.7 2.7 0 00-.241-.217z" fill="#166D44"/><path d="M18.025 26.627c.892.626 1.807 1.3 2.723 1.951.12.097.12.169.072.29-.385 1.228-1.012 2.337-1.783 3.373-.313.434-.65.82-1.012 1.277a1.797 1.797 0 01-.29-.337c-1.084-1.277-1.951-2.675-2.505-4.265-.072-.217-.024-.29.144-.386.892-.65 1.783-1.277 2.651-1.904z" fill="#fff"/><path d="M23.253 6.096c1.084-.602 2.193-1.228 3.35-1.88a23.157 23.157 0 011.084 3.736c-1.06.434-2.097.867-3.133 1.301-.41-.988-.843-2.048-1.301-3.157zM11.494 9.277a203.616 203.616 0 00-3.108-1.301 19.301 19.301 0 011.06-3.687 21.357 21.357 0 013.35 1.855c-.458 1.06-.892 2.097-1.302 3.133z" fill="#166D44"/></g><defs><clipPath id="clip0"><path fill="#fff" d="M0 0h36.024v36H0z"/></clipPath></defs></svg>